<svg width="41" height="50" viewBox="0 0 41 50" fill="none" xmlns="http://www.w3.org/2000/svg">
<path d="M11.8959 0.493646C11.7691 0.516695 11.6385 0.539744 11.5271 0.616574C11.0777 0.920052 10.9778 1.55006 11.2813 1.99951L13.4018 5.1649C10.125 6.90125 7.68178 9.78621 6.88659 13.2474H34.0536C33.2584 9.78621 30.8152 6.90125 27.5384 5.1649L29.6589 1.99951C29.9624 1.55006 29.8625 0.920052 29.4131 0.616574C28.9598 0.313096 28.3336 0.443707 28.0302 0.893161L25.6945 4.33514C24.0734 3.74355 22.314 3.41318 20.4701 3.41318C18.6262 3.41318 16.8668 3.74355 15.2457 4.33514L12.91 0.893161C12.6834 0.55511 12.2724 0.420658 11.8959 0.493646ZM15.0613 8.33029C15.8757 8.33029 16.5364 8.99102 16.5364 9.80542C16.5364 10.6237 15.8757 11.2806 15.0613 11.2806C14.243 11.2806 13.5861 10.6237 13.5861 9.80542C13.5861 8.99102 14.243 8.33029 15.0613 8.33029ZM25.8789 8.33029C26.6972 8.33029 27.3541 8.99102 27.3541 9.80542C27.3541 10.6237 26.6972 11.2806 25.8789 11.2806C25.0645 11.2806 24.4038 10.6237 24.4038 9.80542C24.4038 8.99102 25.0645 8.33029 25.8789 8.33029ZM3.75193 15.2142C2.12314 15.2142 0.801666 16.5357 0.801666 18.1645V31.9324C0.801666 33.5612 2.12314 34.8827 3.75193 34.8827C4.09767 34.8827 4.42803 34.8097 4.73535 34.6983V15.3986C4.42803 15.2872 4.09767 15.2142 3.75193 15.2142ZM6.7022 15.2142V36.8495C6.7022 38.4745 8.02751 39.7998 9.65246 39.7998H31.2877C32.9127 39.7998 34.238 38.4745 34.238 36.8495V15.2142H6.7022ZM37.1883 15.2142C36.8425 15.2142 36.5122 15.2872 36.2048 15.3986V34.6983C36.5122 34.8058 36.8425 34.8827 37.1883 34.8827C38.8171 34.8827 40.1385 33.5612 40.1385 31.9324V18.1645C40.1385 16.5357 38.8171 15.2142 37.1883 15.2142ZM10.6359 41.7666V45.7003C10.6359 47.8708 12.3991 49.634 14.5696 49.634C16.74 49.634 18.5033 47.8708 18.5033 45.7003V41.7666H10.6359ZM22.4369 41.7666V45.7003C22.4369 47.8708 24.2002 49.634 26.3706 49.634C28.5411 49.634 30.3043 47.8708 30.3043 45.7003V41.7666H22.4369Z" fill="#B5C730"/>
</svg>
