<svg width="24" height="23" viewBox="0 0 24 23" fill="none" xmlns="http://www.w3.org/2000/svg">
<path d="M11.9637 0.414063C5.78334 0.414063 0.773193 5.42421 0.773193 11.6045C0.773193 17.7849 5.78334 22.795 11.9637 22.795C18.144 22.795 23.1541 17.7849 23.1541 11.6045C23.147 5.42719 18.141 0.421257 11.9637 0.414063Z" fill="#F2FF8E" fill-opacity="0.44"/>
<path d="M15.8545 9.13524L11.3775 15.6999C11.2707 15.853 11.1115 15.9533 10.9356 15.9783C10.7598 16.0033 10.582 15.9508 10.4422 15.8328L7.24524 13.0709C6.96313 12.827 6.91745 12.3821 7.14321 12.0773C7.36897 11.7725 7.78068 11.7231 8.0628 11.9671L10.7287 14.2717L14.8014 8.29919C14.935 8.08265 15.1679 7.96293 15.4076 7.98756C15.6474 8.01219 15.8552 8.17719 15.9486 8.41705C16.042 8.65692 16.0058 8.93283 15.8545 9.13524Z" fill="#87932E"/>
</svg>
