<svg width="34" height="26" viewBox="0 0 34 26" fill="none" xmlns="http://www.w3.org/2000/svg">
<path fill-rule="evenodd" clip-rule="evenodd" d="M21.3965 25.7217C19.6476 22.3404 18.7731 18.6676 18.7731 14.7034C18.7731 10.6808 19.8371 7.35782 21.9649 4.73441C24.0928 2.11101 27.4012 0.799301 31.8902 0.799301V6.30846C30.3161 6.30846 29.1647 6.65825 28.436 7.35782C27.7073 8.0574 27.3429 9.39825 27.3429 11.3804V12.2549H33.7266V25.7217H21.3965ZM3.29498 25.7217C1.54604 22.3404 0.67157 18.6676 0.67157 14.7034C0.67157 10.6808 1.73551 7.35782 3.86339 4.73441C5.99126 2.11101 9.29967 0.799301 13.7886 0.799301V6.30846C12.2146 6.30846 11.0632 6.65825 10.3345 7.35782C9.60574 8.0574 9.24137 9.39825 9.24137 11.3804V12.2549L15.625 12.2549V25.7217H3.29498Z" fill="white"/>
</svg>
