<svg width="57" height="50" viewBox="0 0 57 50" fill="none" xmlns="http://www.w3.org/2000/svg">
<path d="M5.43326 0.452148C2.87478 0.452148 0.802521 2.45295 0.802521 4.92321V36.2206C0.802521 38.6909 2.87478 40.6917 5.43326 40.6917H23.3774L22.2197 45.1627H19.3255C19.0187 45.1585 18.714 45.2133 18.4293 45.3237C18.1446 45.4342 17.8855 45.5982 17.667 45.8062C17.4485 46.0142 17.275 46.2621 17.1565 46.5354C17.0381 46.8087 16.9771 47.102 16.9771 47.3983C16.9771 47.6945 17.0381 47.9878 17.1565 48.2611C17.275 48.5344 17.4485 48.7823 17.667 48.9903C17.8855 49.1983 18.1446 49.3623 18.4293 49.4728C18.714 49.5832 19.0187 49.638 19.3255 49.6338H37.8484C38.1552 49.638 38.4599 49.5832 38.7446 49.4728C39.0293 49.3623 39.2884 49.1983 39.5069 48.9903C39.7254 48.7823 39.8989 48.5344 40.0174 48.2611C40.1358 47.9878 40.1968 47.6945 40.1968 47.3983C40.1968 47.102 40.1358 46.8087 40.0174 46.5354C39.8989 46.2621 39.7254 46.0142 39.5069 45.8062C39.2884 45.5982 39.0293 45.4342 38.7446 45.3237C38.4599 45.2133 38.1552 45.1585 37.8484 45.1627H34.9542L33.7965 40.6917H51.7406C54.2991 40.6917 56.3714 38.6909 56.3714 36.2206V4.92321C56.3714 2.45295 54.2991 0.452148 51.7406 0.452148H5.43326ZM5.43326 4.92321H51.7406V31.7495H5.43326V4.92321ZM28.5869 33.9851C29.865 33.9851 30.9023 34.9866 30.9023 36.2206C30.9023 37.4546 29.865 38.4561 28.5869 38.4561C27.3089 38.4561 26.2716 37.4546 26.2716 36.2206C26.2716 34.9866 27.3089 33.9851 28.5869 33.9851Z" fill="#B5C730"/>
</svg>
