<svg width="16" height="16" viewBox="0 0 16 16" fill="none" xmlns="http://www.w3.org/2000/svg">
<path d="M11.5 0.883789H4.5C2.567 0.883789 1 2.45079 1 4.38379V11.3838C1 13.3168 2.567 14.8838 4.5 14.8838H11.5C13.433 14.8838 15 13.3168 15 11.3838V4.38379C15 2.45079 13.433 0.883789 11.5 0.883789Z" stroke="#7A6982" stroke-width="1.31447" stroke-linecap="round" stroke-linejoin="round"/>
<path d="M10.4588 7.16055C10.5452 7.74316 10.4457 8.33817 10.1745 8.86096C9.90323 9.38375 9.47405 9.8077 8.94799 10.0725C8.42193 10.3373 7.82577 10.4295 7.24431 10.3359C6.66285 10.2423 6.1257 9.96778 5.70926 9.55131C5.29282 9.13484 5.01829 8.59765 4.92472 8.01615C4.83116 7.43465 4.92332 6.83846 5.1881 6.31236C5.45289 5.78627 5.8768 5.35706 6.39956 5.0858C6.92231 4.81453 7.51729 4.71502 8.09986 4.80141C8.6941 4.88953 9.24425 5.16646 9.66904 5.59127C10.0938 6.01609 10.3707 6.56627 10.4588 7.16055Z" stroke="#7A6982" stroke-width="1.31447" stroke-linecap="round" stroke-linejoin="round"/>
</svg>
