<svg width="44" height="50" viewBox="0 0 44 50" fill="none" xmlns="http://www.w3.org/2000/svg">
<path d="M43.2275 36.5364C42.0723 39.0965 41.5157 40.2408 40.0299 42.5003C37.9498 45.6577 35.0159 49.6002 31.3914 49.6253C28.1645 49.6545 27.3316 47.5245 22.9496 47.5621C18.5717 47.583 17.6593 49.667 14.4282 49.6336C10.7996 49.6002 8.02469 46.0502 5.94458 42.897C0.126978 34.0556 -0.488264 23.6897 3.10693 18.1769C5.65161 14.2677 9.67371 11.9707 13.4531 11.9707C17.3036 11.9707 19.7227 14.0798 22.9035 14.0798C25.9923 14.0798 27.8715 11.9665 32.3247 11.9665C35.6897 11.9665 39.2472 13.7958 41.7919 16.9532C33.4715 21.5055 34.8233 33.3623 43.2275 36.5364ZM28.943 8.43745C30.5627 6.36178 31.7932 3.43411 31.3453 0.452148C28.7044 0.631735 25.6156 2.31483 23.8117 4.49492C22.1753 6.48289 20.8192 9.43144 21.3466 12.2839C24.2303 12.3758 27.2144 10.6593 28.943 8.43745Z" fill="#B5C730"/>
</svg>
