<svg width="97" height="130" viewBox="0 0 97 130" fill="none" xmlns="http://www.w3.org/2000/svg">
<path fill-rule="evenodd" clip-rule="evenodd" d="M7.22705 126.185C6.24491 126.185 5.13625 126.099 3.90021 125.929C3.22255 125.844 2.75722 125.666 2.50335 125.393C2.24928 125.12 2.13925 124.677 2.17351 124.064C2.292 122.377 2.57104 120.294 3.01198 117.815C3.45199 115.337 3.98506 112.947 4.61211 110.647C4.73061 110.221 4.96722 109.922 5.32323 109.752C5.67832 109.581 6.14453 109.497 6.72009 109.497C7.75281 109.497 8.26968 109.787 8.26968 110.366C8.26968 110.604 8.21916 110.877 8.11705 111.183C7.67704 112.546 7.237 114.374 6.79606 116.665C6.35605 118.957 6.0425 121.141 5.85635 123.22C6.36415 123.271 6.93974 123.296 7.58305 123.296C10.5458 123.296 12.7594 122.393 14.2241 120.588C15.6887 118.782 16.4206 116.371 16.4206 113.356C16.4206 111.328 15.845 109.76 14.6939 108.653C13.5428 107.546 11.9173 106.992 9.81838 106.992C8.46398 106.992 7.12227 107.204 5.79314 107.631C5.15345 107.835 4.54447 108.073 3.96529 108.34C1.8709 109.31 2.132 109.48 2.19706 111.696C2.20389 111.949 2.31074 113.138 1.65128 112.816C0.679997 112.343 1.88354 110.659 1.14536 109.59C1.02345 109.414 0.90597 109.327 0.802907 109.178C0.633867 108.93 0.548828 108.628 0.548828 108.27C0.548828 107.861 0.616765 107.525 0.751997 107.261C0.887571 106.996 1.11614 106.754 1.43779 106.533C2.60608 105.732 3.97767 105.122 5.55162 104.705C7.12557 104.288 8.64169 104.079 10.0973 104.079C12.1628 104.079 13.9491 104.44 15.4562 105.165C16.9633 105.889 18.1226 106.95 18.9348 108.347C19.748 109.744 20.1537 111.431 20.1537 113.406C20.1537 115.979 19.6459 118.224 18.6303 120.14C17.6148 122.057 16.133 123.544 14.1859 124.6C12.2378 125.657 9.91868 126.185 7.22705 126.185ZM87.4903 120.724C87.4937 120.864 87.5142 121.023 87.521 121.279C87.5245 121.415 87.5825 122.057 87.2263 121.883C86.8026 121.677 87.313 119.326 86.7745 120.316C86.3201 121.148 85.8692 121.852 85.422 122.429C85.3281 122.55 85.2321 122.671 85.1338 122.79C85.074 122.901 85.0053 123.002 84.9257 123.094C84.1975 123.997 83.4151 124.738 82.5766 125.317C81.739 125.896 80.7867 126.186 79.7196 126.186C78.9064 126.186 78.3101 125.87 77.9288 125.24C77.5484 124.61 77.3577 123.724 77.3577 122.583C77.0695 123.741 76.6385 124.631 76.0629 125.253C75.4874 125.875 74.8694 126.186 74.2089 126.186C73.4472 126.186 72.8247 125.832 72.3422 125.126C71.8597 124.418 71.6184 123.536 71.6184 122.481C71.6184 122.053 71.6287 121.636 71.6457 121.232C71.0322 121.354 70.388 121.43 69.7122 121.458C69.3905 122.889 68.7553 124.035 67.8075 124.896C67.2157 125.433 66.5742 125.802 65.883 126.004C64.9921 126.262 65.3219 127.83 65.3427 128.546C65.3495 128.799 65.4564 129.988 64.7969 129.667C63.9024 129.23 64.853 127.768 64.4319 126.705C64.31 126.397 64.2447 126.199 63.7786 126.131C63.101 126.032 62.501 125.804 61.9788 125.445C61.4872 125.108 61.0761 124.694 60.7464 124.206C59.4398 125.526 58.2047 126.186 57.0391 126.186C55.9386 126.186 55.139 125.794 54.6393 125.01C54.5038 124.798 54.3873 124.567 54.2888 124.318C53.7828 124.738 53.2307 125.092 52.6326 125.381C51.5239 125.918 50.4533 126.186 49.4205 126.186C47.7616 126.186 46.4704 125.713 45.5479 124.768C45.3881 124.604 45.2426 124.431 45.1097 124.249C43.8195 125.54 42.5988 126.186 41.4458 126.186C40.3453 126.186 39.5457 125.794 39.0461 125.01C38.9197 124.812 38.8094 124.598 38.7144 124.367C38.3314 124.721 37.9338 125.038 37.5218 125.318C36.6671 125.897 35.6975 126.187 34.6142 126.187C33.1242 126.187 32.0201 125.505 31.3 124.142C31.2214 123.993 31.1463 123.838 31.077 123.68C30.5141 124.225 29.8102 124.737 28.9636 125.216C27.8206 125.863 26.5972 126.187 25.2944 126.187C23.5171 126.187 22.1365 125.701 21.1552 124.73C20.1731 123.759 19.6824 122.43 19.6824 120.743C19.6824 119.568 19.9283 118.474 20.4188 117.46C20.9095 116.446 21.5907 115.642 22.4636 115.045C23.3355 114.449 24.3212 114.15 25.4217 114.15C26.4039 114.15 27.1909 114.444 27.7836 115.032C28.3763 115.621 28.6726 116.416 28.6726 117.422C28.6726 118.598 28.2534 119.607 27.4158 120.451C26.5773 121.293 25.1597 121.963 23.162 122.456C23.5848 123.24 24.389 123.632 25.5745 123.632C26.3361 123.632 27.2035 123.364 28.1775 122.827C29.0034 122.372 29.7343 121.797 30.3713 121.103C30.2719 120.409 30.2221 119.66 30.2221 118.854C30.2221 116.775 30.4884 114.407 31.0217 111.749C31.5548 109.091 32.3427 106.808 33.3836 104.9C34.4253 102.991 35.665 102.038 37.1044 102.038C37.9166 102.038 38.5563 102.417 39.0217 103.175C39.487 103.933 39.7201 105.019 39.7201 106.434C39.7201 108.461 39.1618 110.813 38.0441 113.487C36.9264 116.162 35.4111 118.81 33.4983 121.434C33.6168 122.133 33.8118 122.632 34.082 122.929C34.3532 123.227 34.7082 123.376 35.1492 123.376C35.8431 123.376 36.4529 123.176 36.977 122.776C37.3475 122.494 37.7911 122.068 38.3052 121.5C38.3325 120.8 38.4271 119.947 38.5896 118.943C38.785 117.742 39.0342 116.622 39.3386 115.582C39.4913 115.037 39.6947 114.662 39.9486 114.458C40.2026 114.253 40.609 114.151 41.1674 114.151C42.0312 114.151 42.4622 114.441 42.4622 115.02C42.4622 115.446 42.3014 116.434 41.9797 117.985C41.5732 119.859 41.3699 121.128 41.3699 121.792C41.3699 122.303 41.4375 122.695 41.573 122.968C41.7086 123.241 41.9371 123.376 42.2588 123.376C42.5634 123.376 42.9446 123.164 43.4018 122.737C43.634 122.521 43.9051 122.241 44.2159 121.897C44.1807 121.618 44.1636 121.327 44.1636 121.025C44.1636 119.645 44.4348 118.436 44.9759 117.396C45.518 116.357 46.2201 115.556 47.0839 114.994C47.9477 114.432 48.853 114.151 49.8017 114.151C50.7332 114.151 51.4561 114.428 51.9729 114.981C52.4897 115.535 52.7473 116.246 52.7473 117.115C52.7473 117.831 52.5908 118.436 52.2774 118.93C52.0896 119.226 51.8672 119.433 51.6097 119.552C51.0585 119.806 51.2528 120.199 51.2699 120.79C51.2733 120.927 51.3314 121.569 50.9752 121.395C50.5334 121.18 50.9253 120.5 50.8208 119.946C50.7402 119.518 50.5569 119.667 50.2706 119.441C50.0763 119.288 49.9786 119.075 49.9786 118.802C49.9786 118.683 49.9957 118.546 50.0291 118.393C50.0636 118.239 50.0889 118.129 50.1049 118.061C50.19 117.806 50.2324 117.567 50.2324 117.345C50.2324 117.123 50.1774 116.953 50.0671 116.834C49.9568 116.715 49.8007 116.655 49.5972 116.655C49.2078 116.655 48.8437 116.83 48.5058 117.179C48.167 117.528 47.8967 118.001 47.6934 118.597C47.4902 119.194 47.3888 119.849 47.3888 120.565C47.3888 122.542 48.2436 123.529 49.954 123.529C50.6479 123.529 51.3969 123.294 52.2011 122.826C52.774 122.493 53.3396 122.041 53.8989 121.47C53.9262 120.775 54.0218 119.932 54.1816 118.942C54.377 117.741 54.6262 116.621 54.9307 115.581C55.0833 115.036 55.2866 114.661 55.5406 114.457C55.7943 114.252 56.201 114.15 56.7594 114.15C57.6232 114.15 58.0551 114.44 58.0551 115.019C58.0551 115.445 57.8942 116.433 57.5726 117.984C57.1669 119.857 56.9636 121.127 56.9636 121.791C56.9636 122.302 57.0312 122.694 57.1668 122.967C57.3024 123.24 57.5309 123.375 57.8526 123.375C58.1572 123.375 58.5384 123.163 58.9955 122.736C59.2393 122.509 59.5268 122.211 59.8584 121.842C59.8079 121.51 59.7833 121.17 59.7833 120.819C59.7833 119.525 60.0292 118.37 60.5197 117.356C61.0103 116.342 61.688 115.55 62.5517 114.979C63.4156 114.408 64.3715 114.124 65.4214 114.124C66.708 114.124 67.7453 114.571 68.5323 115.465C69.3193 116.36 69.781 117.463 69.9165 118.775C70.5119 118.736 71.1932 118.632 71.9603 118.459C72.1321 117.545 72.3823 116.585 72.7103 115.58C72.8793 115.069 73.1169 114.702 73.4213 114.48C73.7259 114.258 74.2083 114.148 74.8688 114.148C75.2411 114.148 75.4995 114.207 75.6432 114.327C75.7869 114.447 75.8589 114.626 75.8589 114.864C75.8589 115 75.7658 115.46 75.5796 116.244C75.4106 116.874 75.275 117.445 75.1739 117.956C74.8352 119.745 74.6661 120.938 74.6661 121.534C74.6661 121.892 74.7085 122.143 74.7935 122.288C74.8786 122.432 75.0142 122.505 75.2001 122.505C75.4542 122.505 75.7712 122.25 76.1525 121.738C76.5338 121.227 76.9394 120.452 77.3713 119.413C77.8033 118.373 78.2216 117.095 78.6282 115.579C78.7637 115.068 78.9715 114.702 79.2507 114.48C79.5301 114.258 79.9491 114.148 80.5075 114.148C80.8969 114.148 81.168 114.194 81.3198 114.288C81.4724 114.382 81.5483 114.557 81.5483 114.812C81.5483 115.238 81.3369 116.405 80.9131 118.313C80.4387 120.494 80.202 121.84 80.202 122.351C80.202 122.675 80.2696 122.927 80.4052 123.105C80.5407 123.284 80.7187 123.374 80.9383 123.374C81.277 123.374 81.6792 123.165 82.1445 122.748C82.3053 122.603 82.4853 122.429 82.683 122.222C83.5423 121.145 84.1964 120.251 84.6464 119.541C84.9336 119.046 85.2725 118.386 85.662 117.561C86.0514 116.734 86.4318 115.879 86.805 114.992C87.1267 114.243 87.7952 113.867 88.8108 113.867C89.2852 113.867 89.6149 113.91 89.8011 113.996C89.9872 114.081 90.0804 114.217 90.0804 114.405C90.0804 114.507 90.0459 114.669 89.9793 114.89C89.9117 115.112 89.8185 115.333 89.7 115.555C89.3954 116.169 89.2428 116.688 89.2428 117.113C89.2428 117.369 89.3313 117.65 89.5095 117.957C89.6875 118.264 89.9622 118.647 90.3353 119.107C90.8775 119.823 91.2877 120.432 91.5669 120.934C91.8462 121.437 91.9861 121.986 91.9861 122.582C91.9861 122.753 91.969 122.992 91.9356 123.298C92.765 122.974 93.7381 122.114 94.8558 120.717C95.059 120.479 95.2877 120.359 95.5416 120.359C95.7622 120.359 95.9355 120.461 96.062 120.666C96.1894 120.87 96.2526 121.151 96.2526 121.51C96.2526 122.157 96.0918 122.685 95.7701 123.094C94.9235 124.151 94.1148 124.87 93.345 125.254C92.5752 125.638 91.622 125.846 90.488 125.88C89.8113 126.46 89.0062 126.75 88.0756 126.75C87.1955 126.75 86.5224 126.545 86.0571 126.136C85.5917 125.727 85.3586 125.267 85.3586 124.756C85.3586 124.313 85.5195 123.929 85.8411 123.605C86.1628 123.282 86.6371 123.12 87.2633 123.12C87.4839 123.12 87.7413 123.141 88.0376 123.183C88.3341 123.226 88.558 123.256 88.7107 123.273C88.6936 122.83 88.597 122.412 88.4188 122.02C88.2408 121.629 88.0167 121.249 87.7456 120.884C87.6155 120.71 87.4762 120.398 87.4871 120.724L87.4903 120.724ZM57.3401 113.243C57.3435 113.332 57.4049 113.749 57.0266 113.637C56.3128 113.424 57.5443 112.713 56.3227 112.341C56.0516 112.258 55.8258 112.132 55.646 111.965C55.2909 111.632 55.1129 111.168 55.1129 110.572C55.1129 109.975 55.3462 109.477 55.8114 109.077C56.2767 108.676 56.8568 108.476 57.5507 108.476C58.1768 108.476 58.6846 108.629 59.074 108.936C59.4634 109.242 59.6577 109.677 59.6577 110.24C59.6577 110.921 59.4371 111.462 58.9972 111.863C58.6756 112.155 58.2762 112.342 57.8009 112.42C57.1694 112.524 57.3103 112.626 57.3401 113.243ZM25.0837 117.925C25.0871 118.062 25.1452 118.704 24.789 118.53C24.3725 118.326 24.6978 117.71 24.648 117.176C24.6172 116.833 24.5602 116.675 24.2532 116.849C23.9386 117.028 23.6559 117.329 23.4065 117.753C22.9746 118.486 22.7587 119.371 22.7587 120.411V120.461C23.758 120.223 24.545 119.865 25.1205 119.389C25.6961 118.911 25.9834 118.357 25.9834 117.727C25.9834 117.404 25.895 117.144 25.7167 116.948C25.6211 116.842 25.5063 116.764 25.3724 116.716C24.8927 116.54 25.0765 117.675 25.0837 117.925ZM64.788 123.476C65.3292 123.476 65.799 123.254 66.1975 122.812C66.5951 122.369 66.8616 121.73 66.9971 120.895C66.4722 120.538 66.0701 120.069 65.7909 119.489C65.5115 118.91 65.3726 118.296 65.3726 117.649C65.3726 117.376 65.3965 117.104 65.4484 116.832H65.322C64.6453 116.832 64.0815 117.16 63.6333 117.815C63.1852 118.472 62.9602 119.396 62.9602 120.588C62.9602 121.525 63.1418 122.241 63.5059 122.734C63.8691 123.229 64.2973 123.476 64.788 123.476ZM41.6529 112.462C40.9418 112.462 40.4087 112.296 40.0527 111.964C39.6967 111.631 39.5196 111.167 39.5196 110.571C39.5196 109.974 39.7528 109.476 40.218 109.076C40.6833 108.675 41.2634 108.475 41.9573 108.475C42.5835 108.475 43.0913 108.628 43.4816 108.935C43.871 109.241 44.0653 109.676 44.0653 110.239C44.0653 110.92 43.8447 111.461 43.4048 111.862C42.9648 112.262 42.3811 112.462 41.6529 112.462ZM36.5478 104.565C36.1584 104.565 35.7184 105.272 35.2278 106.686C34.7372 108.1 34.3053 109.855 33.933 111.951C33.5607 114.046 33.3574 116.057 33.324 117.982C34.5257 115.989 35.4825 113.991 36.1936 111.989C36.9047 109.987 37.2598 108.16 37.2598 106.507C37.2589 105.213 37.0221 104.565 36.5478 104.565Z" fill="url(#paint0_linear_438_532)"/>
<path fill-rule="evenodd" clip-rule="evenodd" d="M13.8231 124.332C13.8808 124.301 13.9389 124.271 13.9966 124.24C14.9354 123.731 15.7621 123.118 16.4741 122.404C17.1861 121.689 17.7869 120.87 18.2757 119.949C19.2588 118.094 19.7504 115.913 19.7504 113.406C19.7504 112.447 19.6527 111.563 19.4584 110.754C19.2651 109.95 18.9741 109.215 18.5883 108.551C17.8185 107.228 16.7161 106.221 15.2831 105.533C14.5567 105.184 13.7642 104.922 12.9086 104.748C12.0475 104.573 11.1105 104.486 10.0995 104.486C9.38387 104.486 8.65836 104.537 7.92469 104.638C7.18559 104.74 6.42932 104.893 5.65679 105.098C4.43612 105.422 3.34284 105.863 2.37695 106.421C3.22991 105.977 4.1741 105.617 5.20955 105.344C5.98208 105.139 6.7383 104.985 7.47739 104.884C8.2111 104.783 8.93668 104.732 9.65228 104.732C10.6642 104.732 11.6003 104.819 12.4614 104.994C13.317 105.167 14.1094 105.428 14.8358 105.777C16.2689 106.466 17.3703 107.472 18.141 108.796C18.5268 109.459 18.8168 110.193 19.0111 110.998C19.2054 111.806 19.3031 112.69 19.3031 113.649C19.3031 116.156 18.8116 118.337 17.8285 120.191C17.3406 121.113 16.7398 121.932 16.0269 122.646C15.3844 123.294 14.6499 123.855 13.8231 124.332ZM12.1922 122.737C12.0071 122.831 11.8164 122.918 11.6203 122.997C10.4638 123.469 9.11841 123.705 7.58599 123.705C7.27796 123.705 6.96706 123.698 6.65445 123.684C6.35906 123.67 6.0798 123.65 5.81958 123.625L5.42022 123.584L5.45644 123.184C5.55137 122.126 5.67701 121.053 5.83229 119.963C5.98938 118.862 6.17928 117.737 6.40063 116.587C6.84427 114.28 7.28882 112.436 7.73424 111.057L7.73601 111.054C7.7804 110.92 7.81388 110.793 7.83642 110.674C7.85691 110.567 7.86716 110.464 7.86716 110.366C7.86716 110.059 7.48677 109.906 6.72417 109.906C6.45507 109.906 6.21822 109.926 6.01493 109.961C5.82164 109.996 5.65078 110.05 5.5026 110.121H5.50078C5.41131 110.164 5.33379 110.217 5.26754 110.282C5.36043 110.251 5.46084 110.226 5.56842 110.206C5.77161 110.169 6.00844 110.151 6.27771 110.151C7.03938 110.151 7.4207 110.304 7.4207 110.611C7.4207 110.709 7.41045 110.812 7.38996 110.919C7.36947 111.038 7.33496 111.166 7.28955 111.299L7.28777 111.303C6.84233 112.682 6.39779 114.526 5.95412 116.834C5.73386 117.984 5.54389 119.109 5.38578 120.21C5.22937 121.299 5.10472 122.373 5.00992 123.43L4.97376 123.83L5.37311 123.87C5.63333 123.898 5.91253 123.916 6.20799 123.929C6.52148 123.943 6.83232 123.95 7.13953 123.95C8.67284 123.95 10.0182 123.714 11.1738 123.242C11.5307 123.097 11.8715 122.928 12.1922 122.737ZM93.0753 124.931L93.1685 124.886C93.5227 124.71 93.8878 124.455 94.2636 124.119C94.6494 123.775 95.0479 123.348 95.4572 122.836C95.5856 122.673 95.6832 122.483 95.748 122.271V122.269C95.8157 122.047 95.8491 121.792 95.8491 121.507C95.8491 121.355 95.8389 121.224 95.8129 121.117C95.7924 121.023 95.7604 120.943 95.7207 120.879C95.6934 120.833 95.6637 120.801 95.635 120.784C95.6145 120.77 95.5834 120.764 95.5445 120.764C95.482 120.764 95.4236 120.777 95.3683 120.806C95.3024 120.84 95.2365 120.896 95.1706 120.972L95.1398 121.011C95.1603 121.013 95.176 121.017 95.1887 121.028C95.216 121.045 95.2457 121.076 95.2744 121.122C95.314 121.187 95.3448 121.266 95.3666 121.36C95.3905 121.468 95.4028 121.598 95.4028 121.751C95.4028 122.036 95.3686 122.291 95.3017 122.512V122.514C95.2368 122.728 95.1398 122.916 95.0118 123.08C94.6015 123.591 94.2031 124.019 93.8173 124.362C93.5653 124.587 93.3176 124.776 93.0755 124.93L93.0753 124.931ZM92.2775 123.594C92.2126 123.625 92.1484 123.652 92.0842 123.676L91.4617 123.919L91.5358 123.252C91.5529 123.105 91.5631 122.974 91.572 122.859C91.5788 122.755 91.5823 122.663 91.5823 122.581C91.5823 122.316 91.5515 122.063 91.49 121.822L91.4918 121.821C91.4314 121.582 91.3391 121.352 91.2162 121.13C91.0816 120.888 90.9154 120.619 90.7175 120.327C90.5221 120.038 90.2883 119.714 90.0154 119.353C89.8293 119.123 89.6648 118.908 89.523 118.711C89.3731 118.501 89.2519 118.318 89.1607 118.162V118.16C89.0586 117.984 88.98 117.809 88.9257 117.638C88.868 117.453 88.838 117.278 88.838 117.112C88.838 116.625 89.005 116.045 89.3394 115.371L89.3429 115.361C89.4494 115.162 89.5327 114.965 89.5921 114.77C89.6229 114.672 89.6444 114.588 89.6591 114.519V114.517C89.6693 114.467 89.6761 114.429 89.6761 114.404C89.6761 114.393 89.683 114.393 89.6796 114.39C89.6762 114.386 89.6625 114.376 89.6372 114.366C89.5785 114.338 89.488 114.318 89.3654 114.303C89.226 114.286 89.042 114.276 88.8133 114.276C88.273 114.276 87.8547 114.397 87.5583 114.64C87.7878 114.56 88.057 114.52 88.3661 114.52C88.5945 114.52 88.779 114.531 88.9181 114.548C89.04 114.561 89.1312 114.585 89.19 114.611C89.2139 114.622 89.2289 114.631 89.2323 114.634C89.2341 114.637 89.2289 114.635 89.2289 114.648C89.2289 114.672 89.2221 114.712 89.2118 114.762V114.764C89.1982 114.833 89.1746 114.917 89.1449 115.015C89.0851 115.209 89.0021 115.406 88.8956 115.606L88.8922 115.616C88.5579 116.289 88.3907 116.87 88.3907 117.357C88.3907 117.523 88.4181 117.698 88.4785 117.883C88.5328 118.054 88.6113 118.228 88.7135 118.405V118.406C88.8039 118.563 88.9248 118.746 89.0758 118.956C89.2175 119.154 89.3821 119.367 89.5682 119.597C89.841 119.958 90.0751 120.283 90.2702 120.572C90.4673 120.864 90.6335 121.132 90.769 121.375C90.8919 121.597 90.9841 121.827 91.0446 122.066H91.0428C91.1043 122.307 91.135 122.561 91.135 122.825C91.135 122.907 91.1316 123 91.1248 123.104C91.1179 123.219 91.1042 123.35 91.0885 123.496L91.0144 124.164L91.6379 123.921C91.8448 123.841 92.0579 123.732 92.2775 123.594ZM81.5146 123.658C81.3158 123.741 81.1251 123.782 80.9426 123.782C80.7719 123.782 80.612 123.745 80.4637 123.67C80.3182 123.597 80.1919 123.49 80.0878 123.352C79.8963 123.1 79.8006 122.766 79.8006 122.35C79.8006 122.072 79.8621 121.585 79.985 120.887C80.1042 120.211 80.2832 119.323 80.5218 118.227L80.5236 118.225C80.9392 116.351 81.147 115.213 81.147 114.812C81.147 114.74 81.1402 114.687 81.1265 114.654C81.1231 114.643 81.1197 114.636 81.1162 114.636C81.0295 114.584 80.8291 114.556 80.5145 114.556C80.2659 114.556 80.0555 114.58 79.883 114.624C79.7303 114.664 79.6057 114.723 79.5089 114.8L79.508 114.799C79.4807 114.82 79.4537 114.845 79.4284 114.872L79.4352 114.869C79.6077 114.824 79.8192 114.801 80.0668 114.801C80.3813 114.801 80.5818 114.829 80.6685 114.881C80.6713 114.883 80.6754 114.888 80.6788 114.898C80.6925 114.933 80.6993 114.985 80.6993 115.056C80.6993 115.457 80.4913 116.596 80.0759 118.47L80.074 118.472C79.8357 119.569 79.6566 120.455 79.5374 121.132C79.4144 121.829 79.353 122.318 79.353 122.596C79.353 123.01 79.4486 123.344 79.6401 123.597C79.745 123.735 79.8707 123.842 80.016 123.914C80.1642 123.989 80.324 124.026 80.4949 124.026C80.7288 124.026 80.9756 123.958 81.2358 123.823C81.3263 123.778 81.4181 123.722 81.5131 123.658L81.5146 123.658ZM75.4319 122.88C75.355 122.904 75.2782 122.914 75.2034 122.914C75.0443 122.914 74.9009 122.88 74.7733 122.812H74.7715C74.6387 122.741 74.5304 122.634 74.4481 122.495C74.3805 122.38 74.3308 122.233 74.3008 122.058C74.2769 121.907 74.2628 121.732 74.2628 121.534C74.2628 121.221 74.3073 120.754 74.3947 120.135C74.4797 119.535 74.6078 118.784 74.7787 117.882V117.878C74.8302 117.62 74.8907 117.344 74.9593 117.053H74.9611C75.0352 116.74 75.1121 116.435 75.1916 116.141C75.2811 115.763 75.3506 115.46 75.3957 115.231C75.4353 115.033 75.4562 114.911 75.4562 114.865C75.4562 114.797 75.4493 114.743 75.4323 114.704C75.422 114.68 75.4084 114.659 75.3899 114.643C75.366 114.626 75.3223 114.608 75.2554 114.592C75.1588 114.572 75.0313 114.558 74.8722 114.558C74.5687 114.558 74.3121 114.582 74.1043 114.63C73.9171 114.673 73.7689 114.734 73.6615 114.812C73.6253 114.839 73.5891 114.868 73.555 114.901C73.5891 114.89 73.6219 114.884 73.6571 114.873C73.8657 114.825 74.1215 114.801 74.4251 114.801C74.5842 114.801 74.7116 114.812 74.8082 114.836C74.8758 114.849 74.9212 114.867 74.9427 114.887C74.9598 114.9 74.9769 114.922 74.9851 114.947C75.0021 114.987 75.009 115.04 75.009 115.109C75.009 115.155 74.9885 115.277 74.9485 115.476C74.9024 115.704 74.8348 116.007 74.7443 116.385C74.6658 116.679 74.587 116.984 74.5129 117.297H74.5111C74.4425 117.589 74.382 117.864 74.3305 118.122V118.126C74.1597 119.028 74.0313 119.78 73.9464 120.38C73.8587 120.999 73.8147 121.466 73.8147 121.779C73.8147 121.978 73.8283 122.152 73.8525 122.303C73.8799 122.479 73.9311 122.625 73.9991 122.74L74 122.739C74.0812 122.879 74.1898 122.985 74.3227 123.056H74.3244C74.4518 123.124 74.5956 123.158 74.7546 123.158C74.9742 123.159 75.1997 123.066 75.4319 122.88ZM71.8945 118.89C71.1681 119.047 70.5184 119.144 69.9456 119.18L69.5571 119.204L69.5164 118.814C69.4532 118.198 69.3139 117.632 69.099 117.119C68.8859 116.609 68.5966 116.147 68.2325 115.733C67.8801 115.332 67.4718 115.032 67.0091 114.832C66.5429 114.631 66.0143 114.53 65.4252 114.53C64.9373 114.53 64.4738 114.595 64.0347 114.726C63.6407 114.844 63.263 115.015 62.9043 115.236C63.1256 115.13 63.3543 115.042 63.5883 114.972C64.0274 114.841 64.491 114.775 64.9789 114.775C65.5689 114.775 66.0965 114.876 66.5628 115.077C67.0254 115.277 67.4338 115.577 67.7862 115.978C68.1503 116.392 68.4395 116.855 68.6527 117.365C68.8668 117.877 69.006 118.443 69.0701 119.059L69.1097 119.449L69.4982 119.425C70.1117 119.386 70.8138 119.277 71.6035 119.101L71.8647 119.042L71.8945 118.89ZM58.3315 123.682C58.1652 123.748 58.0071 123.782 57.8581 123.782C57.6242 123.782 57.418 123.728 57.2391 123.622C57.0558 123.513 56.912 123.354 56.809 123.146L56.8099 123.145C56.6453 122.813 56.5624 122.361 56.5624 121.788C56.5624 121.441 56.6156 120.935 56.7215 120.274C56.8263 119.62 56.98 118.826 57.1823 117.894C57.3414 117.126 57.4625 116.498 57.541 116.011C57.6168 115.543 57.6548 115.211 57.6548 115.016C57.6548 114.709 57.3583 114.556 56.7656 114.556C56.518 114.556 56.3094 114.576 56.1404 114.619C55.9922 114.656 55.8785 114.708 55.7989 114.771C55.7681 114.795 55.7374 114.827 55.7077 114.861C55.874 114.821 56.0781 114.8 56.3194 114.8C56.9121 114.8 57.2084 114.954 57.2084 115.261C57.2084 115.456 57.1705 115.788 57.0937 116.256C57.0152 116.744 56.895 117.371 56.7359 118.139C56.5344 119.072 56.3799 119.865 56.2742 120.52C56.1683 121.181 56.1151 121.686 56.1151 122.033C56.1151 122.605 56.1974 123.058 56.3627 123.39L56.3617 123.391C56.4649 123.598 56.6083 123.757 56.7918 123.866C56.9708 123.973 57.1776 124.027 57.4107 124.027C57.688 124.028 57.9954 123.912 58.3315 123.682ZM52.0185 123.389C51.7275 123.536 51.4411 123.653 51.161 123.74C50.7454 123.87 50.3442 123.935 49.9593 123.935C48.9817 123.935 48.2381 123.641 47.7294 123.053C47.2351 122.482 46.9885 121.651 46.9885 120.561C46.9885 120.19 47.0158 119.826 47.0708 119.47C47.1258 119.115 47.2074 118.779 47.3146 118.462V118.46C47.4228 118.143 47.5523 117.852 47.7031 117.588C47.8568 117.321 48.0292 117.087 48.2208 116.89C48.3294 116.778 48.4415 116.68 48.5552 116.597C48.2806 116.702 48.0194 116.882 47.7736 117.135C47.582 117.333 47.4095 117.566 47.2559 117.834C47.1049 118.097 46.9748 118.388 46.8673 118.706V118.707C46.7598 119.024 46.6775 119.36 46.6235 119.715C46.5685 120.07 46.5412 120.434 46.5412 120.806C46.5412 121.896 46.7888 122.726 47.2821 123.297C47.7908 123.885 48.5344 124.179 49.512 124.179C49.897 124.179 50.2981 124.114 50.7137 123.985C51.1185 123.858 51.5351 123.67 51.9625 123.421L52.0185 123.389ZM51.2685 119.237C51.3635 119.216 51.4519 119.181 51.5325 119.133C51.6835 119.042 51.8197 118.9 51.9418 118.708C52.0757 118.497 52.1757 118.262 52.2437 118.001C52.3123 117.735 52.3468 117.44 52.3468 117.113C52.3468 116.724 52.2908 116.375 52.1788 116.067C52.0695 115.764 51.9032 115.494 51.6837 115.259C51.4679 115.028 51.2084 114.854 50.9057 114.738C50.5912 114.618 50.2253 114.558 49.8079 114.558C49.3715 114.558 48.9478 114.621 48.5366 114.749C48.1644 114.865 47.7985 115.033 47.4397 115.252C47.6539 115.148 47.8707 115.062 48.0894 114.994C48.5005 114.867 48.9243 114.802 49.3607 114.802C49.7781 114.802 50.1449 114.862 50.4594 114.982C50.7619 115.098 51.0214 115.272 51.2373 115.502C51.4579 115.739 51.6231 116.008 51.7325 116.311C51.8445 116.619 51.9005 116.968 51.9005 117.357C51.9005 117.684 51.866 117.98 51.7973 118.246C51.7297 118.506 51.6293 118.742 51.4955 118.953C51.4251 119.065 51.3488 119.16 51.2685 119.237ZM42.7391 123.682C42.5728 123.748 42.4147 123.782 42.2657 123.782C42.0318 123.782 41.8256 123.728 41.6467 123.622C41.4634 123.513 41.3196 123.354 41.2166 123.146L41.2175 123.145C41.0522 122.813 40.97 122.361 40.97 121.788C40.97 121.44 41.0232 120.935 41.1291 120.274C41.2339 119.62 41.3876 118.826 41.589 117.894C41.7481 117.126 41.8692 116.498 41.9477 116.011C42.0235 115.543 42.0625 115.211 42.0625 115.016C42.0625 114.709 41.7661 114.556 41.1734 114.556C40.9258 114.556 40.7171 114.576 40.5481 114.619C40.3999 114.656 40.2862 114.708 40.2066 114.771C40.1758 114.795 40.1451 114.827 40.1144 114.861C40.2807 114.821 40.4848 114.8 40.7261 114.8C41.3188 114.8 41.6152 114.954 41.6152 115.261C41.6152 115.456 41.5773 115.788 41.5015 116.256C41.4229 116.743 41.3027 117.371 41.1436 118.139C40.9422 119.072 40.7876 119.865 40.6828 120.52C40.577 121.181 40.5237 121.686 40.5237 122.033C40.5237 122.605 40.606 123.058 40.7713 123.39L40.7694 123.391C40.8726 123.598 41.016 123.757 41.1996 123.866C41.3785 123.973 41.5853 124.027 41.8185 124.027C42.0958 124.027 42.4029 123.912 42.7391 123.682ZM36.5743 123.49C36.1415 123.686 35.668 123.783 35.1548 123.783C34.8819 123.783 34.6307 123.735 34.4022 123.639C34.171 123.542 33.9666 123.397 33.7895 123.201C33.6188 123.014 33.476 122.772 33.3612 122.477C33.2537 122.202 33.168 121.875 33.1038 121.5L33.0765 121.33L33.1786 121.191C34.1291 119.887 34.9784 118.581 35.7256 117.274C36.4747 115.965 37.1252 114.649 37.6782 113.326C38.2284 112.009 38.6405 110.773 38.9142 109.62C39.1854 108.48 39.32 107.417 39.32 106.43C39.32 105.75 39.265 105.153 39.1553 104.64C39.0488 104.141 38.8914 103.723 38.6837 103.386C38.4859 103.064 38.2564 102.825 37.9952 102.67H37.9934C37.7386 102.519 37.444 102.444 37.1106 102.444C36.5621 102.444 36.0444 102.604 35.5583 102.924C35.9116 102.768 36.2803 102.689 36.6634 102.689C36.9967 102.689 37.2914 102.765 37.5461 102.916H37.5479C37.8092 103.07 38.0395 103.309 38.2365 103.631C38.4444 103.969 38.6015 104.388 38.7081 104.885C38.8184 105.398 38.8734 105.995 38.8734 106.675C38.8734 107.662 38.7378 108.726 38.4668 109.865C38.1929 111.018 37.7801 112.254 37.2307 113.571C36.6778 114.893 36.0272 116.21 35.2782 117.519C34.531 118.826 33.6816 120.132 32.7311 121.435L32.629 121.574L32.6563 121.744C32.7205 122.12 32.8062 122.446 32.9138 122.722C33.0285 123.016 33.1713 123.257 33.3421 123.445C33.5193 123.64 33.7234 123.786 33.9547 123.883C34.1832 123.978 34.4345 124.026 34.7074 124.026C35.4031 124.027 36.0258 123.848 36.5743 123.49ZM28.1316 123.313C27.7105 123.53 27.3067 123.698 26.9218 123.817C26.4465 123.965 25.9992 124.038 25.5809 124.038C24.9276 124.038 24.3711 123.927 23.913 123.703C23.4332 123.469 23.0664 123.117 22.8134 122.649L22.6262 122.303L22.1148 122.428L22.3661 122.893C22.6192 123.361 22.986 123.713 23.4658 123.947C23.9247 124.17 24.4804 124.282 25.1337 124.282C25.552 124.282 25.9993 124.209 26.4754 124.061C26.9344 123.919 27.4206 123.706 27.9311 123.426C27.998 123.389 28.065 123.352 28.1316 123.313ZM25.7553 121.116C26.3272 120.828 26.7871 120.509 27.135 120.16L27.1341 120.159C27.8922 119.395 28.2716 118.482 28.2716 117.419C28.2716 116.963 28.2067 116.56 28.0763 116.21C27.9499 115.869 27.7591 115.572 27.5053 115.32C27.2512 115.068 26.9541 114.879 26.6135 114.751V114.75C26.2683 114.62 25.8734 114.556 25.428 114.556C24.4829 114.556 23.6318 114.791 22.8737 115.263C23.5152 114.956 24.2173 114.801 24.9808 114.801C25.4262 114.801 25.821 114.866 26.1662 114.995V114.997C26.5067 115.124 26.8041 115.314 27.058 115.566C27.3121 115.818 27.5025 116.115 27.629 116.455C27.7592 116.805 27.824 117.208 27.824 117.665C27.824 118.728 27.4446 119.64 26.6865 120.404L26.6874 120.405C26.4361 120.657 26.1257 120.894 25.7553 121.116ZM28.4668 125.021C28.5689 124.969 28.671 124.915 28.7721 124.858C29.1859 124.623 29.5608 124.384 29.8961 124.14C30.2314 123.897 30.534 123.645 30.8023 123.385L30.8297 123.357L30.7719 123.226L30.3563 123.628C30.0879 123.888 29.7853 124.14 29.4501 124.384C29.153 124.599 28.8248 124.812 28.467 125.02L28.4668 125.021ZM36.7017 125.323C36.9086 125.224 37.1101 125.109 37.3043 124.977C37.5041 124.842 37.6974 124.699 37.8853 124.549L37.8844 124.548C38.075 124.396 38.263 124.235 38.4473 124.064L38.478 124.036L38.4282 123.914L38.0008 124.31C37.8164 124.481 37.6286 124.642 37.4379 124.795L37.4388 124.796C37.251 124.945 37.0575 125.088 36.8578 125.223C36.8056 125.258 36.7532 125.291 36.7017 125.323ZM42.8909 125.416C42.9415 125.392 42.992 125.367 43.0435 125.339C43.6101 125.04 44.1965 124.588 44.8028 123.986L44.7177 123.869L44.3834 124.204C43.872 124.716 43.3743 125.119 42.8909 125.416ZM52.5967 124.946C52.8334 124.826 53.062 124.696 53.2834 124.554C53.5447 124.385 53.7966 124.202 54.0379 124.002L54.055 123.985L54.017 123.89L53.5897 124.246C53.3486 124.446 53.0973 124.63 52.8352 124.797C52.7567 124.847 52.6771 124.896 52.5958 124.945L52.5967 124.946ZM58.4842 125.416C58.5412 125.388 58.5979 125.359 58.656 125.328C59.2342 125.019 59.8315 124.555 60.4477 123.934L60.3647 123.812L60.0187 124.162C59.4937 124.692 58.9821 125.11 58.4842 125.416ZM66.3784 125.381C66.7841 125.189 67.1718 124.925 67.5413 124.59C67.9831 124.189 68.3518 123.723 68.6463 123.191C68.9445 122.653 69.1704 122.044 69.3222 121.367L69.3393 121.291L69.2542 121.294L68.9434 121.308L68.8748 121.612C68.7232 122.29 68.4971 122.898 68.199 123.436C67.9043 123.968 67.5357 124.435 67.0939 124.836C66.8627 125.046 66.6242 125.228 66.3784 125.381ZM74.8301 125.657C74.8844 125.637 74.9377 125.613 74.99 125.586C75.2539 125.453 75.514 125.248 75.7697 124.972C76.0289 124.692 76.2585 124.346 76.4564 123.937C76.6234 123.593 76.7682 123.204 76.8901 122.772L76.5205 122.726C76.3839 123.277 76.2132 123.763 76.0091 124.183C75.8104 124.593 75.5809 124.937 75.3225 125.218C75.1599 125.393 74.9965 125.539 74.8301 125.657ZM81.7278 125.339C81.9429 125.237 82.1515 125.116 82.3512 124.977C82.7524 124.7 83.1418 124.383 83.5177 124.027C83.8972 123.668 84.2631 123.271 84.6146 122.833L84.6214 122.823C84.6521 122.789 84.6791 122.751 84.7054 122.714C84.7293 122.677 84.7542 122.638 84.7778 122.594L84.8222 122.527C84.8891 122.445 84.9342 122.389 84.9639 122.352L85.1029 122.176C85.3515 121.856 85.6035 121.492 85.8574 121.085C86.1104 120.679 86.367 120.227 86.6254 119.732L86.6527 119.681L86.4539 119.452L86.1794 119.977C85.9209 120.473 85.6643 120.924 85.4114 121.33C85.1576 121.737 84.9054 122.102 84.6569 122.421L84.5176 122.597C84.4869 122.635 84.4425 122.69 84.3759 122.772L84.3315 122.839C84.3076 122.884 84.2837 122.924 84.2591 122.959C84.2318 122.997 84.2048 123.034 84.175 123.069L84.1682 123.08C83.8168 123.516 83.4508 123.914 83.0714 124.273C82.6955 124.629 82.306 124.946 81.9049 125.224C81.8461 125.263 81.7876 125.302 81.7278 125.339ZM88.6778 123.676L88.6675 123.675C88.6105 123.669 88.5139 123.655 88.3766 123.639C88.2267 123.618 88.0938 123.601 87.9818 123.584C87.8462 123.564 87.7161 123.55 87.5914 123.54C87.4756 123.529 87.3674 123.526 87.2643 123.526C86.9941 123.526 86.7619 123.56 86.5685 123.625C86.4087 123.68 86.2738 123.757 86.1637 123.857C86.3482 123.799 86.5659 123.771 86.817 123.771C86.9202 123.771 87.0284 123.775 87.1442 123.785C87.2688 123.795 87.3989 123.809 87.5345 123.83C87.6465 123.847 87.7793 123.864 87.9293 123.884C88.0666 123.902 88.1633 123.915 88.2203 123.921L88.6874 123.973L88.6778 123.676ZM65.6077 123.73C65.353 123.833 65.0809 123.883 64.7909 123.883C64.4737 123.883 64.1765 123.803 63.9 123.643V123.641C63.6371 123.49 63.3977 123.267 63.1826 122.975C62.7643 122.408 62.5555 121.611 62.5555 120.586C62.5555 119.961 62.616 119.399 62.7362 118.903C62.8601 118.392 63.0487 117.951 63.3009 117.581C63.5167 117.265 63.7581 117.013 64.0228 116.827C63.5765 117.007 63.1871 117.341 62.8546 117.827C62.6025 118.196 62.4137 118.637 62.2899 119.148C62.1697 119.645 62.1092 120.206 62.1092 120.832C62.1092 121.857 62.3179 122.654 62.7363 123.221C62.9514 123.513 63.1907 123.735 63.4537 123.888V123.89C63.7303 124.05 64.0274 124.13 64.3445 124.13C64.8108 124.129 65.2319 123.995 65.6077 123.73ZM58.1644 111.901C58.3785 111.819 58.5673 111.705 58.7291 111.557C58.9036 111.398 59.0343 111.212 59.1212 111V110.998C59.2096 110.78 59.255 110.525 59.255 110.236C59.255 110.012 59.2178 109.819 59.1458 109.656C59.0754 109.498 58.9696 109.364 58.8285 109.253C58.514 109.005 58.0885 108.881 57.5537 108.881C57.2511 108.881 56.9763 108.924 56.7296 109.008C56.538 109.075 56.3619 109.166 56.201 109.284C56.2284 109.274 56.2553 109.263 56.2823 109.253C56.5288 109.168 56.8036 109.126 57.1063 109.126C57.6412 109.126 58.0659 109.25 58.3812 109.498C58.5223 109.609 58.6278 109.743 58.6985 109.901C58.7716 110.063 58.8077 110.257 58.8077 110.48C58.8077 110.769 58.7634 111.023 58.6749 111.242V111.243C58.5882 111.456 58.458 111.642 58.2828 111.801C58.2449 111.836 58.205 111.87 58.1644 111.901ZM42.572 111.901C42.7861 111.819 42.9749 111.705 43.1367 111.557C43.3112 111.398 43.442 111.212 43.5288 111V110.998C43.6173 110.78 43.6617 110.525 43.6617 110.236C43.6617 110.012 43.6255 109.819 43.5524 109.656C43.482 109.498 43.3762 109.364 43.2351 109.253C42.9199 109.005 42.4951 108.881 41.9602 108.881C41.6577 108.881 41.3829 108.924 41.1371 109.008C40.9455 109.075 40.7694 109.166 40.6085 109.284C40.6359 109.274 40.6628 109.263 40.6898 109.253C40.9363 109.168 41.2111 109.126 41.5138 109.126C42.0487 109.126 42.4734 109.25 42.7887 109.498C42.9298 109.609 43.0353 109.743 43.106 109.901C43.1791 110.063 43.2152 110.257 43.2152 110.48C43.2152 110.769 43.1709 111.023 43.0824 111.242V111.243C42.9957 111.456 42.8655 111.642 42.6903 111.801C42.6513 111.836 42.6126 111.87 42.572 111.901ZM35.5858 104.878C35.706 104.685 35.8296 104.53 35.9572 104.415C35.6689 104.474 35.396 104.711 35.1394 105.123C34.9028 105.504 34.6561 106.062 34.4013 106.795C33.9016 108.235 33.4634 110.01 33.0884 112.123H33.0902C32.9014 113.184 32.7559 114.221 32.6538 115.234C32.5517 116.247 32.4912 117.242 32.4748 118.219L32.9212 117.974C32.9383 116.996 32.999 116.002 33.1001 114.989C33.2022 113.976 33.3477 112.938 33.5365 111.877H33.5347C33.9097 109.765 34.3479 107.989 34.8476 106.551C35.1034 105.816 35.3491 105.259 35.5858 104.878ZM23.06 117.543C23.2984 117.138 23.5651 116.829 23.8624 116.612C23.3817 116.798 22.9651 117.19 22.6128 117.788C22.3778 118.187 22.2008 118.63 22.0824 119.114C21.966 119.591 21.9079 120.105 21.9079 120.653V121.22L22.4076 121.101C22.9307 120.977 23.4015 120.818 23.8198 120.628C24.0329 120.532 24.2318 120.426 24.4179 120.312C24.3681 120.336 24.3175 120.36 24.267 120.384C23.8486 120.574 23.377 120.732 22.8548 120.856L22.3551 120.976V120.408C22.3551 119.86 22.4128 119.346 22.5296 118.869C22.6481 118.384 22.8243 117.942 23.06 117.543Z" fill="#E9C1C1"/>
<path d="M86.4819 0.721191H9.91597C4.5787 0.721191 0.251953 5.07519 0.251953 10.4461V87.4948C0.251953 92.8657 4.5787 97.2197 9.91597 97.2197H86.4819C91.8192 97.2197 96.1459 92.8657 96.1459 87.4948V10.4461C96.1459 5.07519 91.8192 0.721191 86.4819 0.721191Z" fill="url(#paint1_linear_438_532)"/>
<path fill-rule="evenodd" clip-rule="evenodd" d="M85.6508 59.4656C86.1478 58.9955 86.4812 57.6135 86.6763 56.8998C87.5519 53.7011 87.757 50.7269 87.279 47.4037C86.9004 44.626 85.9725 40.1462 84.9199 37.904C83.9775 35.3463 82.8634 33.9134 81.5072 32.1558L79.4029 29.7136C78.4018 28.8307 77.6166 28.5779 76.2035 29.2089C75.5538 26.9313 74.9159 25.3293 73.7639 23.7426C72.9733 22.6543 70.7948 20.0038 69.8913 19.5965C69.602 18.8109 67.9749 17.7717 67.9415 17.7635C65.0456 17.8971 64.6851 17.3843 63.243 15.9395C62.6865 15.3813 59.8837 13.571 58.9892 13.491C58.1209 12.3645 52.8189 10.7196 50.9567 10.3968C42.6613 8.96207 39.901 10.9169 38.9396 10.9588C37.3277 11.0288 35.8315 10.1541 31.5631 11.3843C27.1548 12.6554 25.6097 14.4657 23.0798 16.8597C22.4645 17.4416 22.3145 17.8681 21.7669 18.4036C21.2736 18.8864 19.7819 19.3619 17.1074 21.9841C12.7551 26.2503 9.34237 32.9932 8.97373 39.0651C8.93138 39.7634 8.68103 43.9059 9.14991 44.6078C9.02697 45.708 9.48423 45.8525 9.39851 46.9454C9.34148 47.6701 9.08061 48.5984 9.0299 49.3413C8.92062 50.9415 9.32528 58.1 9.79698 59.5884C10.0292 60.3212 10.2298 60.9368 10.4602 61.6278C10.5705 61.9588 10.6753 62.2924 10.7873 62.6425C10.8215 62.748 10.9256 63.0698 10.9591 63.1444C11.1858 63.6499 11.0414 63.4063 11.3097 63.7054C11.4183 65.5348 14.8461 72.024 16.4273 74.1825L19.0837 76.7902C19.4088 77.7504 21.6851 79.868 22.5868 80.3908C22.7357 80.9054 23.109 81.2409 23.5563 81.691C24.2168 82.3548 24.2123 82.3057 25.2911 82.4939C29.769 83.2767 31.9267 85.9508 36.0712 86.6263C39.3845 87.011 41.9198 87.1874 45.3081 86.9837C46.1059 86.9356 46.7791 86.7208 47.5209 86.9338C48.2057 87.1301 48.6765 87.6358 49.2068 87.7594C52.0557 88.4259 63.5027 88.1003 67.1475 86.0101C67.8415 85.6118 67.9834 85.2736 68.5878 84.9262C72.2715 82.8132 76.014 80.26 77.5401 76.2176C78.5123 73.6417 77.8382 72.7543 78.1129 72.0497C78.2314 71.746 79.0119 71.1868 79.3444 70.7767C79.9597 70.0193 82.0876 68.44 82.3722 66.2096C82.5675 64.6748 82.8195 64.9076 84.0817 62.89C84.5335 62.1735 85.6301 60.2967 85.6508 59.4656Z" fill="url(#paint2_radial_438_532)"/>
<path fill-rule="evenodd" clip-rule="evenodd" d="M85.7193 57.7778C86.1973 57.3259 86.5189 55.9948 86.7068 55.3074C87.1911 53.5399 87.4621 51.8423 87.5182 50.112C87.4909 49.2283 87.4107 48.3299 87.2778 47.4043C86.8992 44.6266 85.9716 40.1462 84.9199 37.904C83.9775 35.3463 82.8634 33.9134 81.5072 32.1558L79.4029 29.7136C78.4018 28.8307 77.6166 28.5779 76.2035 29.2089C75.5538 26.9313 74.9159 25.3293 73.7639 23.7426C72.9733 22.6543 70.7948 20.0038 69.8913 19.5965C69.602 18.8109 67.9749 17.7717 67.9415 17.7635C65.0456 17.8971 64.6851 17.3843 63.243 15.9395C62.6865 15.3813 59.8837 13.571 58.9892 13.491C58.1209 12.3645 52.8189 10.7196 50.9567 10.3968C50.3477 10.2914 49.77 10.2056 49.2197 10.1347C43.6142 9.65922 41.5478 11.0476 40.7545 11.0821C40.2151 11.1059 39.6883 11.0194 39.0595 10.9458C39.0171 10.953 38.9772 10.9575 38.9403 10.9595C38.4713 10.9795 38.0114 10.9204 37.4901 10.8559C36.5215 10.8686 35.3026 11.0168 33.6537 11.4923C29.4097 12.7162 27.9225 14.4592 25.4866 16.7641C24.8947 17.3242 24.7502 17.7351 24.2225 18.2507C23.7473 18.7153 22.3115 19.1736 19.7364 21.6976C15.5467 25.8046 12.2614 32.2947 11.9073 38.1411C11.8666 38.8131 11.6255 42.801 12.077 43.4766C11.9585 44.5349 12.3987 44.6749 12.3164 45.7269C12.2621 46.4243 12.0111 47.3181 11.9622 48.0327C11.8573 49.5739 12.2459 56.465 12.7003 57.897C12.9237 58.6026 13.1169 59.1945 13.3382 59.8601C13.4441 60.1783 13.5459 60.4993 13.6528 60.8366C13.6869 60.9375 13.7856 61.2476 13.8181 61.3194C14.0366 61.8059 13.8977 61.5713 14.1551 61.8595C14.259 63.6207 17.5588 69.8671 19.0822 71.9457L21.64 74.4561C21.9535 75.3808 24.1447 77.4193 25.0121 77.9221C25.1558 78.4176 25.5153 78.7404 25.9454 79.1741C26.5815 79.8133 26.577 79.766 27.6161 79.947C31.9259 80.7007 34.0041 83.2738 37.9932 83.9249C41.1827 84.2958 43.6241 84.4649 46.8858 84.2685C47.6539 84.2222 48.3017 84.0158 49.0155 84.2204C49.6751 84.4095 50.1278 84.895 50.6383 85.015C53.3805 85.657 64.4001 85.3433 67.9095 83.3311C68.5781 82.9483 68.7127 82.6219 69.2955 82.2883C72.841 80.2543 76.4452 77.7957 77.9134 73.9042C77.9793 73.7305 78.0364 73.565 78.0879 73.4059C78.0743 72.7894 77.9776 72.3967 78.1118 72.0493C78.1535 71.9429 78.2765 71.8057 78.4325 71.6538C78.4803 70.7828 78.3024 70.3045 78.4633 69.8917C78.577 69.5989 79.3288 69.0607 79.6487 68.6661C80.2405 67.9369 82.2897 66.4166 82.5635 64.269C82.7513 62.7924 82.9936 63.0152 84.2089 61.073C84.6399 60.3847 85.6961 58.579 85.7169 57.7779L85.7193 57.7778Z" fill="url(#paint3_radial_438_532)"/>
<path fill-rule="evenodd" clip-rule="evenodd" d="M54.8472 39.0019C54.3575 38.1135 54.4651 37.829 53.5814 37.3852C52.8161 37.0015 52.0607 37.0725 51.1508 37.0752C49.7169 37.079 47.1952 36.7497 46.0829 37.478C44.9761 38.2036 44.3852 39.9766 45.5255 41.2922C46.5311 42.4515 48.2722 41.7942 49.2806 43.0153C50.3983 44.3682 49.7314 46.1812 48.5668 46.7713C47.5719 47.275 44.7692 47.0568 43.4338 47.0577C41.6646 47.0604 40.2732 47.4123 39.9922 49.1517C39.2983 53.4433 45.6818 51.7876 47.8855 52.194C50.0269 52.5886 49.7703 54.8071 50.0314 55.5136C50.4768 56.7183 52.2252 57.7122 53.7612 56.702C54.7904 56.0246 55.383 54.1134 54.2265 52.9132C53.0609 51.7039 51.5584 52.4513 50.4344 51.0747C49.3736 49.7745 50.0956 48.0615 51.1653 47.4632C52.4095 46.7668 53.9934 47.4759 54.7108 45.5211C54.7713 45.3556 54.8157 45.1656 54.8464 44.9565V42.8161C54.8157 42.5143 54.8123 42.1005 54.8464 41.5577L54.8472 39.0019ZM23.0914 41.4341C21.5762 40.3585 21.9485 38.7237 21.9458 36.4442C21.944 35.1422 21.7569 31.548 22.1995 30.6378C23.0326 28.9266 24.7231 29.223 26.9106 29.2249C27.9144 29.2258 28.9191 29.2239 29.923 29.2239L32.8324 29.2939C33.1513 29.6131 33.9952 29.8058 34.3847 30.976C34.5844 31.5752 34.4939 33.401 34.4939 34.1502C34.4939 35.5549 34.7064 39.431 34.23 40.4475C33.4195 42.1815 31.3188 41.8523 29.1909 41.8514C27.6341 41.8514 24.1694 42.1369 23.0914 41.4341ZM21.8157 26.6781C20.9167 26.7381 20.3547 27.1182 19.9146 27.6855C19.4105 28.3374 19.4149 29.0185 19.414 29.9723V41.114C19.4131 42.6688 19.7565 44.1645 21.6928 44.3846C23.5288 44.5082 25.7641 44.3983 27.6444 44.3983C29.6521 44.3983 31.6606 44.3983 33.6683 44.3992C34.6703 44.3992 35.5169 44.4037 36.1142 43.8237C36.6662 43.2881 37.0177 42.798 37.0484 41.6897C37.1034 39.7012 37.0493 37.6245 37.0493 35.626C37.0493 33.6084 37.0698 31.5799 37.0511 29.5632C37.0306 27.4374 35.9235 26.6573 33.8318 26.6537C31.7926 26.6509 23.0915 26.55 21.8157 26.6781ZM26.4626 31.7871C24.0537 32.3354 24.4386 34.5921 24.4368 36.3633C24.4359 37.5798 24.708 38.1817 25.3585 38.7464C26.1283 39.4156 26.8917 39.3419 28.051 39.341C29.5373 39.3476 30.6803 39.3682 31.4185 38.4418C32.2208 37.4371 31.9959 36.156 32.0022 34.7239C32.009 33.2446 31.535 32.3999 30.4896 31.9416C29.8472 31.6598 27.245 31.6198 26.4626 31.7871ZM73.7918 42.8916C74.5074 45.2992 78.3384 44.5609 77.7068 41.715C77.5016 40.7876 76.328 40.012 75.1534 40.3394C74.2038 40.6039 73.4313 41.6823 73.7918 42.8916ZM66.5029 33.2646C67.2185 35.6723 71.0495 34.934 70.418 32.088C70.2127 31.1606 69.0391 30.385 67.8646 30.7124C66.9158 30.977 66.1424 32.0562 66.5029 33.2646ZM54.2961 22.0437C54.626 24.1959 56.7456 23.0766 57.7224 24.4214C58.3584 25.2961 58.494 27.2073 55.871 27.5155C54.2283 27.7083 53.8344 29.9268 54.9873 30.9342C55.6496 31.5134 56.5179 31.3797 57.482 31.3779C61.6536 31.3724 61.9934 31.7753 61.997 27.0481C61.9997 24.4413 61.9475 23.9813 59.6821 23.5667C57.7106 23.2057 58.5626 21.119 57.379 20.138C56.1213 19.0978 54.0142 20.198 54.2961 22.0437ZM58.3286 42.6706C58.7388 44.3482 60.2152 44.3136 62.0991 44.3127C63.889 44.3127 65.6789 44.3127 67.4697 44.3127C69.3852 44.3118 70.9357 44.3882 71.308 42.6543C72.2576 38.2199 65.519 40.8513 63.5899 39.4638C62.0612 38.3645 63.2086 37.0007 61.7494 35.915C60.3715 34.8903 58.5391 35.7832 58.2888 37.2871C58.1812 37.939 58.1852 42.0833 58.3286 42.6706ZM30.1987 20.5707C30.6632 23.5412 35.3651 23.123 34.9847 19.8088C34.6297 16.7192 29.6728 17.2166 30.1987 20.5707ZM39.6398 23.2748C40.0093 24.786 41.3402 24.7551 43.0371 24.7551C44.6499 24.7551 46.2627 24.7551 47.8764 24.7551C49.6031 24.7541 51 24.8232 51.3352 23.2603C52.1909 19.2651 46.1191 21.6354 44.3807 20.3852C43.0028 19.3951 44.0373 18.1658 42.7227 17.1875C41.4803 16.2646 39.8295 17.0693 39.6045 18.424C39.5069 19.0105 39.5107 22.7447 39.6398 23.2748ZM17.3034 63.5204C18.019 65.928 21.85 65.1897 21.2184 62.3438C21.0132 61.4164 19.8396 60.6408 18.665 60.9681C17.7163 61.2327 16.9438 62.3111 17.3034 63.5204ZM52.9878 63.6731C53.7034 66.0808 57.5344 65.3425 56.9028 62.4966C56.6976 61.5691 55.524 60.7936 54.3494 61.1209C53.4007 61.3855 52.6282 62.4638 52.9878 63.6731ZM25.8102 50.9765C26.318 53.2296 28.9617 52.875 31.2594 52.8759C32.3843 52.8759 33.6782 52.996 34.5086 52.4804C35.2459 52.0222 35.7808 51.0556 35.5847 49.87C35.1854 47.4532 32.5154 47.8324 30.1409 47.8269C29.0105 47.8242 27.732 47.7115 26.8249 48.2825C26.1391 48.7134 25.5274 49.7236 25.8102 50.9765ZM49.0248 31.2106C49.2434 30.1414 48.4872 29.1803 47.6334 28.9957C46.888 28.833 44.7674 28.9394 43.8747 28.9339C40.8768 28.9167 41.4903 31.4388 41.5174 34.1466C41.5481 37.3653 44.8776 36.9907 45.2688 34.9485C45.512 33.6792 45.6176 33.0318 46.9087 32.7827C48.0318 32.5645 48.7935 32.3417 49.0248 31.2106ZM15.2551 52.8496C15.4658 54.0179 16.3872 54.5053 17.7669 54.5116C19.6806 54.5206 23.9968 55.2008 23.3092 51.9376C23.0309 50.6174 22.2882 50.5955 20.9473 50.3228C19.5559 50.0391 19.5297 49.2072 19.2559 47.916C18.8141 45.8293 15.2117 45.2893 15.2108 48.8753C15.2108 49.85 15.1031 52.0103 15.2551 52.8496ZM25.0765 57.9813C23.8739 59.146 24.0492 59.9762 24.0492 61.9892L24.0474 71.7599C24.0501 73.3592 24.6383 74.4521 25.7822 74.9067C26.8511 75.4268 30.5863 75.1922 32.0772 75.1931C34.224 75.194 36.3708 75.1904 38.5176 75.1958C40.5804 75.2013 41.8625 74.082 41.8959 72.0526C41.9233 70.3551 42.0397 60.0261 41.7108 59.1733C40.951 57.2021 39.3987 57.2412 37.1724 57.2421L27.4629 57.2412C26.1781 57.2312 25.8807 57.3876 25.0765 57.9813ZM29.6051 72.1517C26.6966 71.4389 27.0453 69.3458 27.0453 66.2453C27.0453 63.2721 26.7407 60.7936 29.6466 60.268C30.9315 60.1844 36.1675 60.1053 37.0484 60.4699C39.2729 61.3919 38.9043 63.5486 38.9043 66.2454C38.9043 67.1682 39.0081 69.2322 38.7824 70.0005C38.5006 70.9625 37.8536 71.6217 37.0015 71.9635C36.0591 72.34 30.9062 72.2345 29.6051 72.1517ZM32.2913 63.3194C28.4459 64.215 29.8138 70.0387 33.6873 69.1295C37.3638 68.2675 36.2488 62.3975 32.2913 63.3194ZM52.5396 79.6384C52.8241 79.0219 52.6417 78.2427 52.2702 77.7963C51.8401 77.278 51.4724 77.2389 50.7803 77.1325C48.8684 76.8389 49.499 75.766 48.9533 74.5603C48.4852 73.5256 46.8634 73.2356 46.0249 74.1512C45.1304 75.1295 46.0147 76.3433 44.4871 76.9898C43.7995 77.2808 43.3613 77.0434 42.7162 77.5181C42.081 77.9854 40.7835 80.7458 44.8242 80.7349C46.2762 80.7312 47.729 80.7377 49.181 80.7377C50.9022 80.7395 51.9234 80.9704 52.5396 79.6384ZM69.8831 71.7008C70.296 70.7079 69.8968 68.623 67.4056 68.5766C66.1967 68.5539 62.9069 68.3884 62.0286 68.843C60.2703 69.7523 61.2172 71.5462 59.9712 72.6291C58.7596 73.6811 57.0058 72.8937 56.3182 74.6676C55.6162 76.4833 56.9507 77.8645 58.7415 77.9018C60.0363 77.9289 63.234 78.109 64.1772 77.6162C65.959 76.6861 64.8991 74.8558 66.2075 73.8056C67.5872 72.6982 69.0121 73.7984 69.8831 71.7008ZM52.9309 68.2593C52.854 68.9303 52.3327 69.5322 51.9008 69.7586C51.2891 70.0796 50.3874 69.9841 49.6465 69.9823C44.7538 69.9723 45.0755 69.9023 45.0755 64.6833C45.0755 63.3685 44.941 61.0463 45.1096 59.8498C45.3023 58.4759 46.8417 57.563 48.1157 58.4296C49.3274 59.2542 49.0301 60.5981 49.0283 62.3847C49.0215 67.4083 50.8272 65.1788 52.2856 66.4945C52.694 66.8627 53.0273 67.4292 52.9325 68.2593H52.9309ZM62.5725 62.5211C61.0573 61.4455 61.4296 59.8107 61.4269 57.5321C61.4251 56.2301 61.238 52.6359 61.6806 51.7257C62.5136 50.0146 64.2041 50.3101 66.3916 50.3128C67.3955 50.3137 68.4002 50.3128 69.404 50.3128L72.3125 50.3828C72.6325 50.7019 73.4754 50.8938 73.8648 52.0649C74.0646 52.6641 73.9741 54.4898 73.9741 55.239C73.9741 56.6438 74.1865 60.5199 73.7111 61.5364C72.9007 63.2703 70.7999 62.9412 68.6712 62.9403C67.1144 62.9384 63.6495 63.2239 62.5725 62.5211ZM61.2959 47.7651C60.3968 47.8251 59.8348 48.2043 59.3948 48.7725C58.8897 49.4245 58.8951 50.1055 58.8942 51.0593V62.2011C58.8933 63.7558 59.2376 65.2515 61.173 65.4716C63.0099 65.5952 65.2443 65.4853 67.1246 65.4853C69.1331 65.4853 71.1408 65.4853 73.1485 65.4862C74.1505 65.4862 74.9971 65.4907 75.5944 64.9107C76.1464 64.3751 76.4979 63.8851 76.5286 62.7767C76.5836 60.7882 76.5295 58.7115 76.5295 56.713C76.5295 54.6954 76.55 52.6669 76.5313 50.6502C76.5108 48.5253 75.4037 47.7443 73.312 47.7407C71.2727 47.7379 62.5717 47.6371 61.2959 47.7651ZM65.9428 52.8741C63.5339 53.4215 63.9179 55.6791 63.917 57.4503C63.9161 58.666 64.1882 59.2688 64.8386 59.8334C65.6084 60.5026 66.3719 60.429 67.5311 60.428C69.0184 60.4346 70.1604 60.4552 70.8987 59.5288C71.7001 58.5241 71.476 57.243 71.4814 55.8109C71.4883 54.3316 71.0143 53.4869 69.9698 53.0287C69.3283 52.7468 66.7261 52.7068 65.9428 52.8741Z" fill="url(#paint4_radial_438_532)"/>
<path fill-rule="evenodd" clip-rule="evenodd" d="M54.3025 39.1364C54.2042 38.9482 54.1301 38.7872 54.0659 38.6463C53.9061 38.2972 53.8218 38.1153 53.3376 37.8726C52.7901 37.5979 52.1973 37.6052 51.5151 37.6143C51.3987 37.6161 51.2785 37.6171 51.1474 37.6181C50.8069 37.619 50.4309 37.6037 50.0288 37.5861C48.7115 37.5307 47.0923 37.4625 46.374 37.9335C46.3037 37.9798 46.2357 38.0317 46.1715 38.088C46.0172 38.2235 45.8806 38.3872 45.7686 38.569C45.7925 38.5446 45.8201 38.5199 45.8464 38.4972C45.9106 38.4408 45.9782 38.389 46.0489 38.3426C46.7672 37.8717 48.3864 37.9398 49.7037 37.9953C50.1058 38.0125 50.4817 38.028 50.8223 38.0273C50.9524 38.0273 51.0726 38.0255 51.19 38.0235C51.8722 38.0146 52.465 38.007 53.0125 38.2817C53.4968 38.5245 53.5808 38.7063 53.7398 39.0564C53.8041 39.1973 53.8791 39.3582 53.9774 39.5465V41.9659C53.9603 42.2433 53.9535 42.4796 53.9535 42.676C53.9535 42.8797 53.9603 43.0661 53.9774 43.2352V45.3256C53.9637 45.411 53.9501 45.482 53.9378 45.5374C53.9207 45.602 53.9016 45.6702 53.8763 45.7411C53.8312 45.8648 53.7804 45.9748 53.7254 46.0721C53.9143 45.9048 54.0777 45.6702 54.2015 45.3319C54.2288 45.261 54.2476 45.1928 54.263 45.1283C54.2767 45.0728 54.2903 45.001 54.3026 44.9164V42.827C54.289 42.6579 54.2787 42.4715 54.2787 42.2678C54.2787 42.0714 54.2855 41.835 54.3026 41.5577L54.3025 39.1364ZM49.5436 46.7003C49.4678 46.7803 49.3882 46.8558 49.3042 46.9249C49.1505 47.0531 48.9835 47.1649 48.8072 47.254C47.901 47.7123 45.9105 47.6596 44.4251 47.6187C44.0447 47.6087 43.6987 47.5987 43.4303 47.5987C42.6225 47.5996 41.9105 47.676 41.3946 47.936L41.3956 47.9369C41.121 48.0761 40.8977 48.2788 40.7396 48.568C40.8389 48.4807 40.9499 48.407 41.0701 48.3461L41.0692 48.3452C41.5851 48.0852 42.2971 48.0088 43.1049 48.0079C43.3733 48.0079 43.7193 48.0168 44.0996 48.0271C45.5851 48.068 47.5756 48.1226 48.4818 47.6634L48.4809 47.6625C48.6582 47.5725 48.8243 47.4616 48.9779 47.3334C49.193 47.1551 49.3837 46.9403 49.5436 46.7003ZM53.6601 56.0873L53.6772 56.0708C53.9743 55.7807 54.1994 55.3507 54.2816 54.8851C54.3622 54.4323 54.3055 53.9523 54.0405 53.5477C53.9808 53.4558 53.9131 53.3694 53.8363 53.2894C53.3936 52.8294 52.8388 52.7157 52.2868 52.603C51.5034 52.4429 50.7209 52.282 50.0144 51.4164C49.8979 51.2737 49.7985 51.1264 49.7162 50.9772C49.3386 50.2926 49.2943 49.5561 49.4687 48.8906C49.5598 48.5423 49.7118 48.2132 49.9069 47.9213C49.5545 48.2959 49.2798 48.7769 49.1434 49.2997C48.9689 49.9653 49.0133 50.7018 49.391 51.3864C49.4733 51.5355 49.5726 51.6828 49.6891 51.8256C50.3956 52.6912 51.1781 52.8512 51.9615 53.0121C52.5144 53.1249 53.0683 53.2385 53.511 53.6986C53.5879 53.7786 53.6555 53.865 53.7153 53.9568C53.9782 54.3614 54.0359 54.8415 53.9557 55.2943C53.9058 55.5807 53.8018 55.8527 53.6601 56.0873ZM22.7771 41.8786C21.2881 40.8221 21.3287 39.4273 21.382 37.5607C21.3923 37.2033 21.4025 36.826 21.4025 36.4441C21.4025 36.205 21.3957 35.8704 21.3855 35.4867C21.3503 33.8201 21.295 31.2533 21.7106 30.3995C21.7884 30.2404 21.8704 30.0958 21.9582 29.9649C21.7451 30.1877 21.5534 30.465 21.3853 30.8087C20.9697 31.6625 21.0248 34.2292 21.0602 35.8959C21.0671 36.2796 21.0739 36.6151 21.0773 36.8533C21.0773 37.2352 21.0671 37.6125 21.0568 37.9698C21.0036 39.8356 20.9629 41.2313 22.4519 42.2878L22.4689 42.2988C23.4719 42.9534 25.9593 42.8807 27.7474 42.828C28.1766 42.8153 28.5651 42.8043 28.8624 42.8043C29.1468 42.8043 29.4434 42.8108 29.7352 42.817C31.5649 42.857 33.2527 42.8942 34.1707 41.484C33.2102 42.476 31.6914 42.4433 30.0605 42.4078C29.7685 42.4013 29.4723 42.3951 29.1877 42.3951C28.8913 42.3951 28.5028 42.4068 28.0727 42.4188C26.2846 42.4716 23.798 42.5443 22.7951 41.8896L22.7771 41.8786ZM21.8455 27.2217C21.4832 27.2454 21.1932 27.3318 20.9538 27.4663C20.7127 27.6018 20.5138 27.7918 20.3367 28.02C20.2943 28.0746 20.257 28.13 20.2229 28.1873C20.3448 28.0655 20.4787 27.96 20.6286 27.8755C20.868 27.7409 21.1581 27.6545 21.5204 27.6309L21.5409 27.6282C22.5086 27.5309 27.966 27.5691 31.3019 27.5927C32.2614 27.5992 33.0466 27.6054 33.5038 27.6054C34.4199 27.6063 35.1049 27.7655 35.5413 28.1364C35.9578 28.4919 36.1756 29.0847 36.1837 29.9758C36.1974 31.3042 36.1905 32.6371 36.1871 33.9701L36.1803 36.034C36.1803 36.4568 36.1871 37.2488 36.1939 38.0416C36.2042 39.3937 36.2178 40.7566 36.1803 42.0832C36.1666 42.5505 36.0918 42.8788 35.9644 43.1388C35.9405 43.1879 35.9146 43.2352 35.8859 43.2806C36.0529 43.1052 36.1905 42.9306 36.2889 42.7297C36.4162 42.4696 36.4921 42.1414 36.5047 41.674C36.5416 40.3475 36.5286 38.9854 36.5183 37.6325C36.5115 36.8396 36.5047 36.0477 36.5047 35.6249L36.5115 33.5609C36.5149 32.2289 36.5218 30.895 36.5081 29.5675C36.4979 28.6765 36.2824 28.0837 35.8657 27.7281C35.4302 27.3563 34.7453 27.1981 33.8291 27.1971C33.3719 27.1962 32.5867 27.1906 31.6272 27.1844C28.2913 27.1607 22.8339 27.1226 21.8662 27.2199L21.8455 27.2217ZM26.5711 32.3189C25.935 32.4653 25.5456 32.7808 25.3079 33.1927C25.5374 32.9818 25.8419 32.8199 26.2458 32.7272C26.6244 32.6462 27.5036 32.6208 28.343 32.6535C29.0549 32.6807 29.7108 32.7463 29.9458 32.8499C30.3551 33.029 30.6496 33.2791 30.8376 33.6218C31.0408 33.9928 31.1357 34.4874 31.134 35.1321V35.1339C31.1331 35.4131 31.1408 35.6767 31.1477 35.9331C31.1716 36.8315 31.1927 37.647 30.827 38.2817C30.8868 38.228 30.9434 38.168 30.995 38.1026C31.5236 37.4406 31.4992 36.535 31.4721 35.5249C31.4653 35.2685 31.4584 35.0048 31.4584 34.7257V34.7238C31.4602 34.0801 31.3645 33.5855 31.162 33.2145C30.9749 32.8717 30.6795 32.6226 30.2702 32.4426C30.0352 32.3398 29.3802 32.2744 28.6673 32.2471C27.8297 32.2116 26.9496 32.2382 26.5711 32.3189ZM76.7455 43.4325C77.1232 43.1143 77.3401 42.5724 77.1757 41.8314L77.1654 41.7904C77.0841 41.494 76.8454 41.2167 76.5257 41.0303C76.1951 40.8385 75.7839 40.7503 75.3701 40.843C75.353 40.8468 75.3284 40.853 75.2976 40.8612L75.2632 40.8721C74.9333 40.973 74.6325 41.214 74.4427 41.5367L74.4188 41.5768C74.5725 41.4404 74.7494 41.3376 74.9366 41.2804L74.9711 41.2704C75.0018 41.2621 75.0253 41.2551 75.0434 41.2513C75.4573 41.1585 75.8684 41.2468 76.1991 41.4386C76.5198 41.625 76.7575 41.9023 76.8388 42.1987L76.849 42.2396C76.9576 42.726 76.9013 43.1252 76.7442 43.4325H76.7455ZM69.4567 33.8064C69.8353 33.4882 70.0512 32.9463 69.8868 32.2053L69.8765 32.1643C69.7952 31.8679 69.5565 31.5906 69.2359 31.4042C68.9053 31.2115 68.4932 31.1242 68.0803 31.2169C68.0632 31.2214 68.0369 31.2279 68.0045 31.2369L67.9806 31.2441C67.6479 31.3441 67.3454 31.5878 67.1538 31.9124L67.1299 31.9515C67.2843 31.8133 67.4642 31.7105 67.6531 31.6533L67.6769 31.6451C67.7111 31.6362 67.7346 31.6297 67.7527 31.6259C68.1657 31.5331 68.5777 31.6214 68.9084 31.8132C69.2291 31.9996 69.4668 32.2769 69.549 32.5733L69.5592 32.6142C69.6685 33.0989 69.6125 33.4989 69.4554 33.8062L69.4567 33.8064ZM58.0007 27.1927C57.9194 27.2727 57.83 27.3499 57.7313 27.4227C57.3102 27.7318 56.7238 27.9637 55.9287 28.0573C55.6162 28.0937 55.3721 28.2355 55.1996 28.4356C55.1309 28.5147 55.0722 28.6038 55.0244 28.7002C55.1787 28.5774 55.3722 28.4928 55.6035 28.4656C56.3986 28.3719 56.9851 28.1401 57.4061 27.8309C57.6626 27.6427 57.8579 27.4254 58.0007 27.1927ZM60.827 30.5204C61.3772 30.1058 61.454 29.1657 61.4558 27.049C61.4567 25.8442 61.449 25.1387 61.2246 24.7677C61.0286 24.4413 60.5497 24.2785 59.5847 24.1021C58.0821 23.8276 57.8545 22.8556 57.6195 21.8545C57.5031 21.3562 57.3829 20.848 57.034 20.5589C56.7448 20.3197 56.3853 20.2443 56.041 20.2979C55.8638 20.325 55.6922 20.3861 55.5359 20.4743C55.3778 20.5643 55.2351 20.6834 55.1194 20.8243C55.0617 20.8953 55.0101 20.9734 54.9657 21.0562C55.0416 20.9907 55.1239 20.9326 55.2106 20.8825C55.366 20.7943 55.5377 20.7334 55.7157 20.7061C56.0599 20.6534 56.4186 20.7278 56.7087 20.9671C57.0583 21.2562 57.1776 21.7654 57.2941 22.2628C57.5291 23.2638 57.7568 24.2358 59.2593 24.5104C60.2234 24.6868 60.7023 24.8495 60.8984 25.1759C61.1214 25.5469 61.1306 26.2525 61.1296 27.4572C61.1287 29.0566 61.0851 29.984 60.827 30.5204ZM70.3232 43.3252C70.5434 43.1461 70.7 42.8942 70.775 42.5424C71.0468 41.2731 70.4983 40.7739 69.6356 40.5866C68.8928 40.4257 67.9306 40.443 66.9882 40.4602C65.5317 40.4867 64.115 40.513 63.2729 39.9074C62.3097 39.2146 62.2048 38.4735 62.101 37.7361C62.0313 37.2433 61.9627 36.7524 61.4242 36.3523C61.1964 36.1832 60.9525 36.0831 60.7104 36.0413C60.4034 35.9895 60.0924 36.0331 59.8123 36.1513C59.5296 36.2704 59.281 36.4641 59.1012 36.7087C59.0623 36.7623 59.0261 36.8178 58.9936 36.876C59.1381 36.7441 59.3054 36.6368 59.4869 36.5605C59.767 36.4422 60.077 36.3986 60.3851 36.4504C60.6272 36.4913 60.8712 36.5914 61.0989 36.7605C61.6374 37.1614 61.707 37.6524 61.7756 38.1452C61.8795 38.8826 61.9836 39.6236 62.9466 40.3165C63.7887 40.922 65.2055 40.8966 66.662 40.8693C67.6053 40.8521 68.5666 40.8348 69.3093 40.9957C70.1722 41.183 70.7207 41.6822 70.4487 42.9515C70.4214 43.0906 70.3775 43.2152 70.3232 43.3252ZM33.9024 21.5372C34.2918 21.1817 34.5295 20.6243 34.4427 19.8706C34.3461 19.0277 33.8039 18.534 33.166 18.3649C32.8915 18.2921 32.5986 18.2758 32.3139 18.3139C32.0302 18.3521 31.7556 18.4439 31.5161 18.5885C31.2723 18.7349 31.0635 18.9395 30.9171 19.2004C31.0011 19.1241 31.0933 19.0559 31.191 18.9977C31.4304 18.854 31.7051 18.7622 31.9888 18.7231C32.2733 18.6849 32.5661 18.7011 32.8408 18.774C33.4796 18.9431 34.0209 19.4369 34.1176 20.2797C34.1763 20.7889 34.0868 21.208 33.9024 21.5372ZM50.3848 23.8412C50.5907 23.6848 50.7353 23.462 50.8031 23.1465C51.0391 22.0436 50.5644 21.6099 49.8182 21.4481C49.1541 21.3045 48.2913 21.3199 47.4446 21.3353C46.1236 21.359 44.8379 21.3835 44.0645 20.8271C43.1772 20.1897 43.0814 19.5105 42.9866 18.834C42.9261 18.4012 42.8647 17.9703 42.3975 17.6229C42.1998 17.4756 41.9881 17.3883 41.7776 17.3529C41.5109 17.3083 41.241 17.3463 40.9979 17.4483C40.752 17.552 40.5353 17.7202 40.379 17.933C40.3383 17.9884 40.3021 18.0466 40.2697 18.1084C40.3889 18.0048 40.5255 17.9193 40.6727 17.8575C40.9159 17.7547 41.1859 17.7165 41.4524 17.762C41.6631 17.7975 41.8744 17.8848 42.0723 18.032C42.5394 18.3794 42.6 18.8113 42.6605 19.2441C42.7554 19.9196 42.851 20.5988 43.7384 21.2362C44.5118 21.7927 45.7976 21.769 47.1185 21.7445C47.9651 21.729 48.828 21.7125 49.4922 21.8572C50.2394 22.0191 50.7137 22.4528 50.477 23.5557C50.4565 23.6611 50.4237 23.7557 50.3848 23.8412ZM20.258 64.0622C20.6357 63.744 20.8526 63.202 20.6881 62.461H20.6863L20.6761 62.4201C20.5948 62.1237 20.3561 61.8464 20.0364 61.66C19.7058 61.4672 19.2946 61.38 18.8808 61.4727C18.8637 61.4764 18.8364 61.4837 18.8049 61.4926L18.781 61.4998C18.4484 61.5998 18.1458 61.8426 17.9552 62.1681L17.9313 62.2081C18.0856 62.0699 18.2656 61.9672 18.4545 61.9108L18.4784 61.9026C18.5125 61.8937 18.5371 61.8872 18.5552 61.8827C18.9681 61.79 19.3792 61.8782 19.7099 62.07C20.0299 62.2564 20.2683 62.5337 20.3496 62.8301L20.3598 62.871H20.3617C20.4699 63.3548 20.4139 63.7539 20.2568 64.0621L20.258 64.0622ZM55.9425 64.214C56.321 63.8958 56.5369 63.3548 56.3725 62.6129L56.3623 62.5719C56.281 62.2755 56.0423 61.9982 55.7217 61.8118C55.3911 61.619 54.9799 61.5318 54.5661 61.6245C54.549 61.629 54.5227 61.6355 54.4903 61.6445L54.4663 61.6517C54.1337 61.7517 53.8311 61.9944 53.6405 62.3199L53.6166 62.36C53.772 62.2217 53.952 62.119 54.1407 62.0617L54.1646 62.0536C54.1987 62.0447 54.2222 62.0382 54.2403 62.0344C54.6542 61.9416 55.0653 62.0289 55.396 62.2216C55.7167 62.408 55.9544 62.6854 56.0366 62.9818L56.0468 63.0227C56.1544 63.5073 56.0984 63.9065 55.9413 64.2138L55.9425 64.214ZM34.4788 51.8193C34.6632 51.6465 34.8187 51.4247 34.9261 51.1647C35.0672 50.8219 35.1232 50.4118 35.049 49.959C34.7745 48.2969 32.9022 48.3287 31.0202 48.3606C30.7275 48.365 30.4347 48.3705 30.1392 48.3695C29.9784 48.3695 29.8213 48.3668 29.6639 48.364C28.7387 48.3496 27.7602 48.3348 27.1097 48.744C26.9037 48.8741 26.7049 49.075 26.554 49.3323C26.6281 49.2623 26.706 49.2023 26.7845 49.1532C27.4351 48.7441 28.4145 48.7586 29.3388 48.7732C29.4959 48.775 29.6533 48.7776 29.8141 48.7787C30.1095 48.7796 30.4032 48.7749 30.695 48.7697C32.5771 48.7378 34.4492 48.7061 34.7239 50.3682C34.798 50.821 34.7443 51.231 34.6009 51.5738C34.5647 51.6593 34.5239 51.7411 34.4788 51.8193ZM48.4918 31.1014C48.5659 30.7405 48.4816 30.3941 48.3067 30.1167C48.1162 29.8131 47.8233 29.5939 47.5171 29.5276H47.5153C47.0228 29.4203 45.7714 29.4448 44.8019 29.4639C44.4396 29.4711 44.1143 29.4777 43.8685 29.4756C42.9813 29.4701 42.5015 29.7638 42.2485 30.2493C42.5313 30.0138 42.9452 29.8811 43.5442 29.8848C43.7901 29.8866 44.1152 29.8803 44.4775 29.8731C45.447 29.8538 46.6985 29.8294 47.1909 29.9367H47.1927C47.499 30.0031 47.7917 30.2222 47.9824 30.5259C48.1569 30.8032 48.2409 31.1496 48.1675 31.5106C48.1401 31.637 48.107 31.747 48.0654 31.8434C48.2713 31.6961 48.4168 31.4706 48.4918 31.1014ZM44.275 35.6367C44.5001 35.443 44.6689 35.1748 44.7322 34.8457L44.7425 34.7893C44.8709 34.1192 44.9709 33.5982 45.1951 33.199C44.719 33.6264 44.5952 34.2692 44.4172 35.1984L44.4069 35.2548C44.383 35.393 44.3365 35.5212 44.275 35.6367ZM22.385 53.5177C22.7482 53.225 22.9262 52.7649 22.7762 52.0503C22.5973 51.2001 22.085 51.1001 21.1833 50.9246C21.1399 50.9164 21.0894 50.9064 20.8372 50.8555C19.2253 50.5273 19.0563 49.6817 18.7952 48.3769H18.7934C18.766 48.2315 18.7357 48.086 18.723 48.0287C18.611 47.4977 18.2134 47.0995 17.7427 46.9176C17.5176 46.8303 17.2765 46.793 17.0443 46.814C16.8237 46.8339 16.6106 46.9076 16.4263 47.0431C16.2753 47.1531 16.1418 47.3058 16.0332 47.5059C16.0571 47.4866 16.0783 47.4686 16.1018 47.4522C16.2862 47.3168 16.5003 47.2432 16.7199 47.2231C16.9531 47.2022 17.1933 47.2403 17.4183 47.3268C17.889 47.5086 18.2857 47.9059 18.3986 48.4378C18.4088 48.4951 18.4403 48.6406 18.4689 48.7861H18.4708C18.732 50.0899 18.9017 50.9364 20.5128 51.2647C20.7641 51.3156 20.8154 51.3256 20.8588 51.3338C21.7606 51.5092 22.2729 51.6093 22.4518 52.4594C22.545 52.904 22.5106 53.2495 22.385 53.5177ZM25.4208 58.3995C25.2385 58.5795 25.0947 58.7522 24.9818 58.925C25.018 58.8868 25.0559 58.8477 25.0955 58.8086C25.4406 58.5549 25.6774 58.394 25.9295 58.3094C26.2023 58.2185 26.5502 58.1885 27.1312 58.1921L36.967 58.193C38.9088 58.1921 40.2659 58.1912 40.8776 59.7778C40.9705 60.0197 41.022 61.5072 41.0493 63.3857C41.0982 66.7862 41.0459 71.3724 41.0254 72.4535C41.0152 73.0509 40.8827 73.551 40.6433 73.9437C41.086 73.5128 41.3362 72.8736 41.3498 72.0444C41.3669 70.9633 41.4212 66.3762 41.3737 62.9766C41.3464 61.099 41.2951 59.6105 41.2019 59.3696C40.5902 57.783 39.2331 57.7839 37.2914 57.7848L27.4555 57.7839C26.8736 57.7801 26.5258 57.8093 26.2538 57.9012C26.0035 57.9848 25.766 58.1449 25.4208 58.3995ZM29.4751 72.6799C26.441 71.9362 26.4627 70.0031 26.4961 67.1409V67.1391C26.4988 66.9399 26.4995 66.7354 26.4995 66.2453C26.4995 65.7807 26.4977 65.6133 26.4968 65.4742C26.4797 63.7248 26.466 62.1855 27.1563 61.1226C26.1381 62.1773 26.1534 63.894 26.1715 65.8834C26.1724 66.0225 26.1742 66.1898 26.1742 66.6544C26.1742 67.1445 26.1715 67.3491 26.1708 67.5482V67.55C26.1367 70.4123 26.1158 72.3453 29.1498 73.0891L29.2426 73.1046C30.0387 73.1555 32.2767 73.2137 34.1272 73.1664C35.3578 73.1344 36.4366 73.0509 36.8722 72.8763C37.3845 72.6717 37.8344 72.368 38.1967 71.968C38.3043 71.8498 38.4037 71.7234 38.4949 71.5888C38.1371 71.9734 37.6971 72.2671 37.1974 72.4672C36.7619 72.6417 35.6831 72.7254 34.4525 72.7572C32.6029 72.8045 30.3648 72.7455 29.5679 72.6954L29.4751 72.6799ZM32.408 63.8494C31.6707 64.0213 31.1674 64.4104 30.8719 64.8951C31.1673 64.605 31.5686 64.3786 32.0836 64.2586C33.241 63.9894 34.0939 64.4141 34.5773 65.1051C34.7733 65.3861 34.9127 65.7097 34.9893 66.0479C35.0662 66.3889 35.0805 66.7472 35.0283 67.0954C34.9804 67.4109 34.8746 67.7155 34.7066 67.9883C35.0689 67.6318 35.2794 67.1709 35.3535 66.6862C35.4058 66.338 35.3914 65.9797 35.3146 65.6388C35.2378 65.3006 35.0994 64.9769 34.9026 64.6959C34.4192 64.0049 33.5654 63.5803 32.408 63.8494ZM52.0446 79.4101C52.1323 79.2192 52.1511 78.9973 52.1197 78.7818C52.0835 78.5345 51.9851 78.3054 51.8523 78.1453C51.5695 77.8044 51.284 77.7607 50.7689 77.6826L50.6965 77.6715C48.9726 77.407 48.8488 76.6496 48.6916 75.6858C48.6444 75.3975 48.5932 75.0829 48.4594 74.7865H48.4576C48.4053 74.6701 48.3291 74.5683 48.238 74.4837C48.0563 74.3155 47.8133 74.2046 47.5531 74.1637C47.2911 74.1219 47.0173 74.15 46.7787 74.2592C46.6476 74.3192 46.525 74.4065 46.42 74.5202C46.3405 74.6074 46.28 74.702 46.2339 74.8011C46.3025 74.7475 46.3766 74.7029 46.4535 74.6684C46.6922 74.5593 46.9658 74.5311 47.2279 74.5729C47.487 74.6147 47.7302 74.7248 47.9118 74.8929C48.003 74.9775 48.0788 75.0793 48.1314 75.1957H48.1341C48.268 75.4921 48.3192 75.8067 48.3664 76.095C48.5234 77.0587 48.6474 77.8161 50.3713 78.0807L50.4437 78.0917C50.9587 78.1699 51.2442 78.2135 51.527 78.5545C51.6599 78.7146 51.7582 78.9437 51.7944 79.191C51.8252 79.4065 51.8081 79.6283 51.7193 79.8193C51.7056 79.8474 51.692 79.8747 51.6787 79.9011C51.8241 79.7847 51.945 79.6265 52.0446 79.4101ZM45.4433 77.0306C45.2606 77.1979 45.0186 77.3534 44.6943 77.4907C44.3292 77.6453 44.0464 77.6789 43.7763 77.7107C43.5259 77.7399 43.2902 77.768 43.0327 77.9571C42.9477 78.0199 42.8411 78.1562 42.7482 78.3372C42.9903 78.1736 43.2144 78.1472 43.4511 78.119C43.7212 78.087 44.0041 78.0535 44.3691 77.8989C44.9438 77.6571 45.259 77.3598 45.4433 77.0306ZM69.3808 71.4915C69.4413 71.3461 69.4775 71.1642 69.4812 70.9669C69.4881 70.6632 69.418 70.3296 69.25 70.0313C69.0854 69.7404 68.82 69.4812 68.4269 69.3157C68.1476 69.1985 67.8061 69.1257 67.3941 69.1185C67.2162 69.1147 67.0228 69.1095 66.8041 69.104C65.3955 69.0649 62.9108 68.9949 62.2729 69.325C61.9423 69.4959 61.7362 69.7187 61.5979 69.9714C61.6963 69.8842 61.812 69.805 61.9485 69.7341C62.5864 69.4041 65.0711 69.4741 66.4798 69.5132C66.6976 69.5197 66.8909 69.5249 67.0698 69.5276C67.4818 69.5359 67.8233 69.6076 68.1025 69.7249C68.4955 69.8904 68.7612 70.1495 68.9248 70.4405C69.0938 70.7387 69.1614 71.0724 69.1559 71.3761C69.1525 71.5734 69.1163 71.7553 69.0556 71.9007C69.004 72.0244 68.9497 72.1335 68.893 72.2308C69.0736 72.069 69.238 71.8352 69.3808 71.4915ZM60.4782 72.8918C60.4294 72.9418 60.3778 72.9899 60.3218 73.0382C59.7156 73.5646 59.0515 73.7001 58.4118 73.831C57.801 73.9556 57.2182 74.0756 56.8983 74.6875C57.2217 74.4166 57.6464 74.3293 58.0874 74.2402C58.7271 74.1092 59.3912 73.9738 59.9975 73.4473C60.2 73.2709 60.3562 73.0845 60.4782 72.8918ZM64.2559 76.9106C64.6933 76.5287 64.78 76.0023 64.8658 75.4776C64.9498 74.9639 65.0348 74.4511 65.3266 73.9829C64.7601 74.552 64.6507 75.2185 64.5414 75.8868C64.4827 76.2423 64.424 76.5987 64.2559 76.9106ZM52.1466 68.8029C52.2713 68.6211 52.3652 68.411 52.3898 68.1974C52.4239 67.9119 52.3898 67.6728 52.3167 67.4727C52.23 67.2354 52.0835 67.0454 51.9219 66.8999C51.5794 66.5908 51.1584 66.5462 50.769 66.5062C49.5221 66.3762 48.4794 66.2671 48.4849 62.3855C48.4849 62.0637 48.4951 61.77 48.5019 61.4899C48.5381 60.307 48.5661 59.3969 47.8089 58.8814C47.6156 58.7504 47.4186 58.675 47.227 58.6477C46.9658 58.6104 46.7075 58.6576 46.4789 58.7677C46.245 58.8805 46.038 59.0614 45.8852 59.2887C45.8613 59.3269 45.8364 59.3651 45.8138 59.4051C45.917 59.3133 46.0317 59.236 46.1536 59.1769C46.3821 59.0668 46.6397 59.0196 46.9009 59.0568C47.0924 59.084 47.2894 59.1596 47.4828 59.2905C48.2399 59.8061 48.2119 60.7153 48.1757 61.8991C48.1689 62.1791 48.1587 62.4729 48.1587 62.7947C48.1552 66.6763 49.1959 66.7854 50.4428 66.9154C50.8322 66.9563 51.2524 66.9999 51.5958 67.3091C51.7576 67.4555 51.9038 67.6446 51.9906 67.8819C52.0637 68.0819 52.0965 68.3211 52.0637 68.6066C52.0432 68.7775 51.9807 68.9448 51.8919 69.0984C51.9814 69.0157 52.0681 68.9157 52.1466 68.8029ZM62.2573 62.9656C60.7691 61.9091 60.8089 60.5143 60.8622 58.6477C60.8724 58.2903 60.8827 57.913 60.8827 57.5311C60.8827 57.292 60.8759 56.9565 60.8656 56.571C60.8305 54.9043 60.7751 52.3394 61.1907 51.4856C61.2686 51.3265 61.3505 51.1828 61.4383 51.051C61.2252 51.2738 61.0335 51.5502 60.8664 51.8948C60.4507 52.7486 60.5058 55.3135 60.5413 56.9801C60.5481 57.3647 60.5549 57.7012 60.5583 57.9394C60.5583 58.3213 60.5481 58.6986 60.5379 59.0559C60.4846 60.9226 60.4439 62.3174 61.9329 63.3739L61.95 63.3849C62.9529 64.0395 65.4394 63.9668 67.2276 63.9141C67.6576 63.9014 68.0462 63.8903 68.3425 63.8903C68.627 63.8903 68.9235 63.8969 69.2154 63.9031C71.0441 63.9431 72.7328 63.9803 73.6508 62.5701C72.6903 63.5621 71.1706 63.5294 69.5406 63.4939C69.2486 63.4874 68.9525 63.4812 68.6678 63.4812C68.3707 63.4812 67.9829 63.4922 67.5529 63.5049C65.7648 63.5567 63.2782 63.6304 62.2753 62.9757L62.2573 62.9656ZM61.3257 48.3078C60.9634 48.3322 60.6734 48.4179 60.4339 48.5533C60.1928 48.6888 59.993 48.8788 59.8168 49.1062C59.7744 49.1607 59.7362 49.2162 59.7031 49.2735C59.825 49.1516 59.9596 49.0461 60.1088 48.9616C60.3482 48.8261 60.6383 48.7406 61.0006 48.7161L61.0211 48.7133C61.9896 48.6161 67.456 48.6552 70.7919 48.6788C71.747 48.6853 72.5285 48.6905 72.9839 48.6915C73.9001 48.6924 74.585 48.8506 75.0214 49.2225C75.4379 49.578 75.6557 50.1709 75.6638 51.0619C75.6775 52.3885 75.6707 53.7205 75.6672 55.0507L75.6604 57.1201C75.6604 57.5429 75.6673 58.3349 75.6741 59.1278C75.6844 60.4798 75.698 61.8427 75.6604 63.1684C75.6467 63.6367 75.572 63.9649 75.4446 64.2249C75.4207 64.274 75.394 64.3213 75.366 64.3677C75.5341 64.1922 75.6713 64.0167 75.7699 63.8158C75.8973 63.5557 75.9731 63.2275 75.9857 62.7601C76.0229 61.4345 76.0096 60.0715 75.9994 58.7195C75.9925 57.9267 75.9857 57.1347 75.9857 56.7119L75.9925 54.6425C75.996 53.3123 76.0028 51.9802 75.9892 50.6537C75.9823 49.7626 75.7624 49.1689 75.3467 48.8143C74.9112 48.4424 74.2264 48.2851 73.3092 48.2833C72.8539 48.2824 72.0723 48.2768 71.1173 48.2706C67.7823 48.2469 62.3159 48.2078 61.3464 48.306L61.3257 48.3078ZM66.0513 53.4059C65.4152 53.5523 65.0257 53.8669 64.7881 54.2797C65.0176 54.0688 65.3221 53.9078 65.726 53.8142C66.1046 53.7332 66.9837 53.7078 67.8222 53.7405C68.5351 53.7676 69.1901 53.8333 69.425 53.936C69.8344 54.116 70.1289 54.3652 70.3168 54.7079C70.52 55.0789 70.615 55.5735 70.6133 56.2173V56.2191C70.6123 56.4982 70.6201 56.761 70.6269 57.0174C70.6508 57.9157 70.672 58.7313 70.3063 59.3668C70.366 59.3132 70.4227 59.2532 70.4753 59.1877C71.0039 58.5258 70.9795 57.6193 70.9524 56.6082C70.9456 56.3518 70.9387 56.09 70.9387 55.8099V55.8072C70.9405 55.1634 70.8448 54.6688 70.6423 54.2978C70.4552 53.9551 70.1607 53.706 69.7505 53.5259C69.5156 53.4232 68.8596 53.3577 68.1476 53.3304C67.3091 53.2995 66.4298 53.325 66.0513 53.4059Z" fill="#8E6262"/>
<defs>
<linearGradient id="paint0_linear_438_532" x1="40.9792" y1="80.7139" x2="40.9792" y2="122.827" gradientUnits="userSpaceOnUse">
<stop stop-color="#673F3C"/>
<stop offset="1" stop-color="#1E1311"/>
</linearGradient>
<linearGradient id="paint1_linear_438_532" x1="0.251953" y1="0.721191" x2="123.819" y2="92.6788" gradientUnits="userSpaceOnUse">
<stop stop-color="#7F4D4A"/>
<stop offset="1" stop-color="#1E1311"/>
</linearGradient>
<radialGradient id="paint2_radial_438_532" cx="0" cy="0" r="1" gradientUnits="userSpaceOnUse" gradientTransform="translate(51.5487 61.4806) rotate(5.80058) scale(51.7419 68.7732)">
<stop stop-color="#AD7A54"/>
<stop offset="0.957476" stop-color="#9F7246"/>
<stop offset="1" stop-color="#603F27"/>
</radialGradient>
<radialGradient id="paint3_radial_438_532" cx="0" cy="0" r="1" gradientUnits="userSpaceOnUse" gradientTransform="translate(48.2522 65.221) scale(48.0003 64.4999)">
<stop stop-color="#F5EBDF"/>
<stop offset="0.758522" stop-color="#F2D3B6"/>
<stop offset="1" stop-color="#B38F68"/>
</radialGradient>
<radialGradient id="paint4_radial_438_532" cx="0" cy="0" r="1" gradientUnits="userSpaceOnUse" gradientTransform="translate(48.2523 65.2212) scale(55.7588 75.868)">
<stop stop-color="#7F4D4A"/>
<stop offset="1" stop-color="#1E1311"/>
</radialGradient>
</defs>
</svg>
