<svg width="40" height="48" viewBox="0 0 40 48" fill="none" xmlns="http://www.w3.org/2000/svg">
<path d="M17.7778 43.6364C17.7778 43.0455 17.9977 42.5341 18.4375 42.1023C18.8773 41.6705 19.3981 41.4545 20 41.4545C20.6019 41.4545 21.1227 41.6705 21.5625 42.1023C22.0023 42.5341 22.2222 43.0455 22.2222 43.6364C22.2222 44.2273 22.0023 44.7386 21.5625 45.1705C21.1227 45.6023 20.6019 45.8182 20 45.8182C19.3981 45.8182 18.8773 45.6023 18.4375 45.1705C17.9977 44.7386 17.7778 44.2273 17.7778 43.6364ZM4.44444 38.1818V5.45455C4.44444 5.15909 4.5544 4.90341 4.7743 4.6875C4.99421 4.47159 5.25463 4.36364 5.55555 4.36364H34.4444C34.7454 4.36364 35.0058 4.47159 35.2257 4.6875C35.4456 4.90341 35.5556 5.15909 35.5556 5.45455V38.1818C35.5556 38.4773 35.4456 38.733 35.2257 38.9489C35.0058 39.1648 34.7454 39.2727 34.4444 39.2727H5.55555C5.25463 39.2727 4.99421 39.1648 4.7743 38.9489C4.5544 38.733 4.44444 38.4773 4.44444 38.1818ZM0 5.45455V42.5455C0 44.0455 0.54398 45.3295 1.63194 46.3977C2.71991 47.4659 4.02777 48 5.55555 48H34.4444C35.9722 48 37.2801 47.4659 38.3681 46.3977C39.456 45.3295 40 44.0455 40 42.5455V5.45455C40 3.95455 39.456 2.67045 38.3681 1.60227C37.2801 0.534091 35.9722 0 34.4444 0H5.55555C4.02777 0 2.71991 0.534091 1.63194 1.60227C0.54398 2.67045 0 3.95455 0 5.45455Z" fill="#B5C730"/>
</svg>
