<svg width="19" height="16" viewBox="0 0 19 16" fill="none" xmlns="http://www.w3.org/2000/svg">
<path d="M18.6436 2.58335C17.9689 2.92326 17.2941 3.03657 16.5069 3.14987C17.2941 2.69665 17.8564 2.01683 18.0813 1.1104C17.4066 1.56361 16.6194 1.79022 15.7197 2.01683C15.0449 1.33701 14.0328 0.883789 13.0207 0.883789C11.1089 0.883789 9.42198 2.58335 9.42198 4.62282C9.42198 4.96273 9.42198 5.18934 9.53444 5.41595C6.49803 5.30265 3.68655 3.82969 1.8872 1.56361C1.54982 2.13013 1.43736 2.69665 1.43736 3.48978C1.43736 4.73613 2.11212 5.86917 3.12425 6.54899C2.56196 6.54899 1.99966 6.32238 1.43736 6.09577V6.09577C1.43736 7.90864 2.67442 9.38159 4.36131 9.7215C4.02393 9.83481 3.68655 9.83481 3.34917 9.83481C3.12425 9.83481 2.89933 9.83481 2.67442 9.7215C3.12425 11.1945 4.47376 12.3275 6.16066 12.3275C4.9236 13.3472 3.34917 13.9138 1.54982 13.9138C1.21244 13.9138 0.987525 13.9138 0.650146 13.9138C2.33704 14.9335 4.24885 15.6133 6.27312 15.6133C13.0207 15.6133 16.7318 9.94811 16.7318 5.07604C16.7318 4.96273 16.7318 4.73613 16.7318 4.62282C17.5191 4.0563 18.1938 3.37648 18.6436 2.58335Z" fill="#7A6982"/>
</svg>
