<svg width="32" height="32" viewBox="0 0 32 32" fill="none" xmlns="http://www.w3.org/2000/svg">
<path d="M24.5322 6.40283C21.121 12.3726 14.5477 15.7969 7.69892 15.1803L3.53979 14.7998" stroke="#4475F2" stroke-width="1.31203" stroke-miterlimit="10" stroke-linecap="round" stroke-linejoin="round"/>
<path d="M7.47583 25.5318C10.8871 19.5621 17.4604 16.1377 24.3091 16.7544L28.4683 17.1348" stroke="#4475F2" stroke-width="1.31203" stroke-miterlimit="10" stroke-linecap="round" stroke-linejoin="round"/>
<path d="M16.0041 28.9827C23.2502 28.9827 29.1243 23.1086 29.1243 15.8625C29.1243 8.61633 23.2502 2.74219 16.0041 2.74219C8.75793 2.74219 2.88379 8.61633 2.88379 15.8625C2.88379 23.1086 8.75793 28.9827 16.0041 28.9827Z" stroke="#4475F2" stroke-width="1.31203" stroke-miterlimit="10" stroke-linecap="round" stroke-linejoin="round"/>
<path d="M10.2703 4.0542L14.4425 9.2367C17.2371 12.7005 19.2183 16.7284 20.2679 21.0449L21.8555 27.592" stroke="#4475F2" stroke-width="1.31203" stroke-miterlimit="10" stroke-linecap="round" stroke-linejoin="round"/>
</svg>
