<svg width="213" height="231" viewBox="0 0 213 231" fill="none" xmlns="http://www.w3.org/2000/svg">
<g opacity="0.1">
<path fill-rule="evenodd" clip-rule="evenodd" d="M7.00436 3.6627C7.00436 5.56771 5.46139 7.11068 3.55638 7.11068C1.65137 7.11068 0.108398 5.56771 0.108398 3.6627C0.108398 1.75769 1.65137 0.214722 3.55638 0.214722C5.46139 0.214722 7.00436 1.75769 7.00436 3.6627Z" fill="#1D293F"/>
<path fill-rule="evenodd" clip-rule="evenodd" d="M7.00436 21.5912C7.00436 23.4962 5.46139 25.0391 3.55638 25.0391C1.65137 25.0391 0.108398 23.4962 0.108398 21.5912C0.108398 19.6862 1.65137 18.1432 3.55638 18.1432C5.46139 18.1432 7.00436 19.6862 7.00436 21.5912Z" fill="#1D293F"/>
<path fill-rule="evenodd" clip-rule="evenodd" d="M26.3134 21.5912C26.3134 23.4962 24.7705 25.0391 22.8655 25.0391C20.9605 25.0391 19.4175 23.4962 19.4175 21.5912C19.4175 19.6862 20.9605 18.1432 22.8655 18.1432C24.7705 18.1432 26.3134 19.6862 26.3134 21.5912Z" fill="#1D293F"/>
<path fill-rule="evenodd" clip-rule="evenodd" d="M44.2431 21.5912C44.2431 23.4962 42.7002 25.0391 40.7951 25.0391C38.8901 25.0391 37.3472 23.4962 37.3472 21.5912C37.3472 19.6862 38.8901 18.1432 40.7951 18.1432C42.7002 18.1432 44.2431 19.6862 44.2431 21.5912Z" fill="#1D293F"/>
<path fill-rule="evenodd" clip-rule="evenodd" d="M62.1716 21.5912C62.1716 23.4962 60.6286 25.0391 58.7236 25.0391C56.8186 25.0391 55.2756 23.4962 55.2756 21.5912C55.2756 19.6862 56.8186 18.1432 58.7236 18.1432C60.6286 18.1432 62.1716 19.6862 62.1716 21.5912Z" fill="#1D293F"/>
<path fill-rule="evenodd" clip-rule="evenodd" d="M81.4807 21.5912C81.4807 23.4962 79.9377 25.0391 78.0327 25.0391C76.1277 25.0391 74.5847 23.4962 74.5847 21.5912C74.5847 19.6862 76.1277 18.1432 78.0327 18.1432C79.9377 18.1432 81.4807 19.6862 81.4807 21.5912Z" fill="#1D293F"/>
<path fill-rule="evenodd" clip-rule="evenodd" d="M100.79 21.5912C100.79 23.4962 99.2468 25.0391 97.3418 25.0391C95.4368 25.0391 93.8938 23.4962 93.8938 21.5912C93.8938 19.6862 95.4368 18.1432 97.3418 18.1432C99.2468 18.1432 100.79 19.6862 100.79 21.5912Z" fill="#1D293F"/>
<path fill-rule="evenodd" clip-rule="evenodd" d="M120.098 21.5912C120.098 23.4962 118.555 25.0391 116.65 25.0391C114.745 25.0391 113.202 23.4962 113.202 21.5912C113.202 19.6862 114.745 18.1432 116.65 18.1432C118.555 18.1432 120.098 19.6862 120.098 21.5912Z" fill="#1D293F"/>
<path fill-rule="evenodd" clip-rule="evenodd" d="M138.027 21.5912C138.027 23.4962 136.484 25.0391 134.579 25.0391C132.674 25.0391 131.131 23.4962 131.131 21.5912C131.131 19.6862 132.674 18.1432 134.579 18.1432C136.484 18.1432 138.027 19.6862 138.027 21.5912Z" fill="#1D293F"/>
<path fill-rule="evenodd" clip-rule="evenodd" d="M157.336 21.5912C157.336 23.4962 155.793 25.0391 153.888 25.0391C151.983 25.0391 150.44 23.4962 150.44 21.5912C150.44 19.6862 151.983 18.1432 153.888 18.1432C155.793 18.1432 157.336 19.6862 157.336 21.5912Z" fill="#1D293F"/>
<path fill-rule="evenodd" clip-rule="evenodd" d="M175.266 21.5912C175.266 23.4962 173.723 25.0391 171.818 25.0391C169.913 25.0391 168.37 23.4962 168.37 21.5912C168.37 19.6862 169.913 18.1432 171.818 18.1432C173.723 18.1432 175.266 19.6862 175.266 21.5912Z" fill="#1D293F"/>
<path fill-rule="evenodd" clip-rule="evenodd" d="M193.196 21.5912C193.196 23.4962 191.653 25.0391 189.748 25.0391C187.843 25.0391 186.3 23.4962 186.3 21.5912C186.3 19.6862 187.843 18.1432 189.748 18.1432C191.653 18.1432 193.196 19.6862 193.196 21.5912Z" fill="#1D293F"/>
<path fill-rule="evenodd" clip-rule="evenodd" d="M212.504 21.5912C212.504 23.4962 210.961 25.0391 209.056 25.0391C207.151 25.0391 205.608 23.4962 205.608 21.5912C205.608 19.6862 207.151 18.1432 209.056 18.1432C210.961 18.1432 212.504 19.6862 212.504 21.5912Z" fill="#1D293F"/>
<path fill-rule="evenodd" clip-rule="evenodd" d="M7.00436 40.9C7.00436 42.805 5.46139 44.348 3.55638 44.348C1.65137 44.348 0.108398 42.805 0.108398 40.9C0.108398 38.995 1.65137 37.452 3.55638 37.452C5.46139 37.452 7.00436 38.995 7.00436 40.9Z" fill="#1D293F"/>
<path fill-rule="evenodd" clip-rule="evenodd" d="M26.3134 40.9C26.3134 42.805 24.7705 44.348 22.8655 44.348C20.9605 44.348 19.4175 42.805 19.4175 40.9C19.4175 38.995 20.9605 37.452 22.8655 37.452C24.7705 37.452 26.3134 38.995 26.3134 40.9Z" fill="#1D293F"/>
<path fill-rule="evenodd" clip-rule="evenodd" d="M44.2431 40.9C44.2431 42.805 42.7002 44.348 40.7951 44.348C38.8901 44.348 37.3472 42.805 37.3472 40.9C37.3472 38.995 38.8901 37.452 40.7951 37.452C42.7002 37.452 44.2431 38.995 44.2431 40.9Z" fill="#1D293F"/>
<path fill-rule="evenodd" clip-rule="evenodd" d="M62.1716 40.9C62.1716 42.805 60.6286 44.348 58.7236 44.348C56.8186 44.348 55.2756 42.805 55.2756 40.9C55.2756 38.995 56.8186 37.452 58.7236 37.452C60.6286 37.452 62.1716 38.995 62.1716 40.9Z" fill="#1D293F"/>
<path fill-rule="evenodd" clip-rule="evenodd" d="M81.4807 40.9C81.4807 42.805 79.9377 44.348 78.0327 44.348C76.1277 44.348 74.5847 42.805 74.5847 40.9C74.5847 38.995 76.1277 37.452 78.0327 37.452C79.9377 37.452 81.4807 38.995 81.4807 40.9Z" fill="#1D293F"/>
<path fill-rule="evenodd" clip-rule="evenodd" d="M100.79 40.9C100.79 42.805 99.2468 44.348 97.3418 44.348C95.4368 44.348 93.8938 42.805 93.8938 40.9C93.8938 38.995 95.4368 37.452 97.3418 37.452C99.2468 37.452 100.79 38.995 100.79 40.9Z" fill="#1D293F"/>
<path fill-rule="evenodd" clip-rule="evenodd" d="M120.098 40.9C120.098 42.805 118.555 44.348 116.65 44.348C114.745 44.348 113.202 42.805 113.202 40.9C113.202 38.995 114.745 37.452 116.65 37.452C118.555 37.452 120.098 38.995 120.098 40.9Z" fill="#1D293F"/>
<path fill-rule="evenodd" clip-rule="evenodd" d="M138.027 40.9C138.027 42.805 136.484 44.348 134.579 44.348C132.674 44.348 131.131 42.805 131.131 40.9C131.131 38.995 132.674 37.452 134.579 37.452C136.484 37.452 138.027 38.995 138.027 40.9Z" fill="#1D293F"/>
<path fill-rule="evenodd" clip-rule="evenodd" d="M157.336 40.9C157.336 42.805 155.793 44.348 153.888 44.348C151.983 44.348 150.44 42.805 150.44 40.9C150.44 38.995 151.983 37.452 153.888 37.452C155.793 37.452 157.336 38.995 157.336 40.9Z" fill="#1D293F"/>
<path fill-rule="evenodd" clip-rule="evenodd" d="M175.266 40.9C175.266 42.805 173.723 44.348 171.818 44.348C169.913 44.348 168.37 42.805 168.37 40.9C168.37 38.995 169.913 37.452 171.818 37.452C173.723 37.452 175.266 38.995 175.266 40.9Z" fill="#1D293F"/>
<path fill-rule="evenodd" clip-rule="evenodd" d="M193.196 40.9C193.196 42.805 191.653 44.348 189.748 44.348C187.843 44.348 186.3 42.805 186.3 40.9C186.3 38.995 187.843 37.452 189.748 37.452C191.653 37.452 193.196 38.995 193.196 40.9Z" fill="#1D293F"/>
<path fill-rule="evenodd" clip-rule="evenodd" d="M212.504 40.9C212.504 42.805 210.961 44.348 209.056 44.348C207.151 44.348 205.608 42.805 205.608 40.9C205.608 38.995 207.151 37.452 209.056 37.452C210.961 37.452 212.504 38.995 212.504 40.9Z" fill="#1D293F"/>
<path fill-rule="evenodd" clip-rule="evenodd" d="M7.00436 58.8312C7.00436 60.7362 5.46139 62.2791 3.55638 62.2791C1.65137 62.2791 0.108398 60.7362 0.108398 58.8312C0.108398 56.9261 1.65137 55.3832 3.55638 55.3832C5.46139 55.3832 7.00436 56.9261 7.00436 58.8312Z" fill="#1D293F"/>
<path fill-rule="evenodd" clip-rule="evenodd" d="M26.3134 58.8312C26.3134 60.7362 24.7705 62.2791 22.8655 62.2791C20.9605 62.2791 19.4175 60.7362 19.4175 58.8312C19.4175 56.9261 20.9605 55.3832 22.8655 55.3832C24.7705 55.3832 26.3134 56.9261 26.3134 58.8312Z" fill="#1D293F"/>
<path fill-rule="evenodd" clip-rule="evenodd" d="M44.2431 58.8312C44.2431 60.7362 42.7002 62.2791 40.7951 62.2791C38.8901 62.2791 37.3472 60.7362 37.3472 58.8312C37.3472 56.9261 38.8901 55.3832 40.7951 55.3832C42.7002 55.3832 44.2431 56.9261 44.2431 58.8312Z" fill="#1D293F"/>
<path fill-rule="evenodd" clip-rule="evenodd" d="M62.1716 58.8312C62.1716 60.7362 60.6286 62.2791 58.7236 62.2791C56.8186 62.2791 55.2756 60.7362 55.2756 58.8312C55.2756 56.9261 56.8186 55.3832 58.7236 55.3832C60.6286 55.3832 62.1716 56.9261 62.1716 58.8312Z" fill="#1D293F"/>
<path fill-rule="evenodd" clip-rule="evenodd" d="M81.4807 58.8312C81.4807 60.7362 79.9377 62.2791 78.0327 62.2791C76.1277 62.2791 74.5847 60.7362 74.5847 58.8312C74.5847 56.9261 76.1277 55.3832 78.0327 55.3832C79.9377 55.3832 81.4807 56.9261 81.4807 58.8312Z" fill="#1D293F"/>
<path fill-rule="evenodd" clip-rule="evenodd" d="M100.79 58.8312C100.79 60.7362 99.2468 62.2791 97.3418 62.2791C95.4368 62.2791 93.8938 60.7362 93.8938 58.8312C93.8938 56.9261 95.4368 55.3832 97.3418 55.3832C99.2468 55.3832 100.79 56.9261 100.79 58.8312Z" fill="#1D293F"/>
<path fill-rule="evenodd" clip-rule="evenodd" d="M120.098 58.8312C120.098 60.7362 118.555 62.2791 116.65 62.2791C114.745 62.2791 113.202 60.7362 113.202 58.8312C113.202 56.9261 114.745 55.3832 116.65 55.3832C118.555 55.3832 120.098 56.9261 120.098 58.8312Z" fill="#1D293F"/>
<path fill-rule="evenodd" clip-rule="evenodd" d="M138.027 58.8312C138.027 60.7362 136.484 62.2791 134.579 62.2791C132.674 62.2791 131.131 60.7362 131.131 58.8312C131.131 56.9261 132.674 55.3832 134.579 55.3832C136.484 55.3832 138.027 56.9261 138.027 58.8312Z" fill="#1D293F"/>
<path fill-rule="evenodd" clip-rule="evenodd" d="M157.336 58.8312C157.336 60.7362 155.793 62.2791 153.888 62.2791C151.983 62.2791 150.44 60.7362 150.44 58.8312C150.44 56.9261 151.983 55.3832 153.888 55.3832C155.793 55.3832 157.336 56.9261 157.336 58.8312Z" fill="#1D293F"/>
<path fill-rule="evenodd" clip-rule="evenodd" d="M175.266 58.8312C175.266 60.7362 173.723 62.2791 171.818 62.2791C169.913 62.2791 168.37 60.7362 168.37 58.8312C168.37 56.9261 169.913 55.3832 171.818 55.3832C173.723 55.3832 175.266 56.9261 175.266 58.8312Z" fill="#1D293F"/>
<path fill-rule="evenodd" clip-rule="evenodd" d="M193.196 58.8312C193.196 60.7362 191.653 62.2791 189.748 62.2791C187.843 62.2791 186.3 60.7362 186.3 58.8312C186.3 56.9261 187.843 55.3832 189.748 55.3832C191.653 55.3832 193.196 56.9261 193.196 58.8312Z" fill="#1D293F"/>
<path fill-rule="evenodd" clip-rule="evenodd" d="M212.504 58.8312C212.504 60.7362 210.961 62.2791 209.056 62.2791C207.151 62.2791 205.608 60.7362 205.608 58.8312C205.608 56.9261 207.151 55.3832 209.056 55.3832C210.961 55.3832 212.504 56.9261 212.504 58.8312Z" fill="#1D293F"/>
<path fill-rule="evenodd" clip-rule="evenodd" d="M7.00436 78.1402C7.00436 80.0452 5.46139 81.5882 3.55638 81.5882C1.65137 81.5882 0.108398 80.0452 0.108398 78.1402C0.108398 76.2352 1.65137 74.6923 3.55638 74.6923C5.46139 74.6923 7.00436 76.2352 7.00436 78.1402Z" fill="#1D293F"/>
<path fill-rule="evenodd" clip-rule="evenodd" d="M26.3134 78.1402C26.3134 80.0452 24.7705 81.5882 22.8655 81.5882C20.9605 81.5882 19.4175 80.0452 19.4175 78.1402C19.4175 76.2352 20.9605 74.6923 22.8655 74.6923C24.7705 74.6923 26.3134 76.2352 26.3134 78.1402Z" fill="#1D293F"/>
<path fill-rule="evenodd" clip-rule="evenodd" d="M44.2431 78.1402C44.2431 80.0452 42.7002 81.5882 40.7951 81.5882C38.8901 81.5882 37.3472 80.0452 37.3472 78.1402C37.3472 76.2352 38.8901 74.6923 40.7951 74.6923C42.7002 74.6923 44.2431 76.2352 44.2431 78.1402Z" fill="#1D293F"/>
<path fill-rule="evenodd" clip-rule="evenodd" d="M62.1716 78.1402C62.1716 80.0452 60.6286 81.5882 58.7236 81.5882C56.8186 81.5882 55.2756 80.0452 55.2756 78.1402C55.2756 76.2352 56.8186 74.6923 58.7236 74.6923C60.6286 74.6923 62.1716 76.2352 62.1716 78.1402Z" fill="#1D293F"/>
<path fill-rule="evenodd" clip-rule="evenodd" d="M81.4807 78.1402C81.4807 80.0452 79.9377 81.5882 78.0327 81.5882C76.1277 81.5882 74.5847 80.0452 74.5847 78.1402C74.5847 76.2352 76.1277 74.6923 78.0327 74.6923C79.9377 74.6923 81.4807 76.2352 81.4807 78.1402Z" fill="#1D293F"/>
<path fill-rule="evenodd" clip-rule="evenodd" d="M100.79 78.1402C100.79 80.0452 99.2468 81.5882 97.3418 81.5882C95.4368 81.5882 93.8938 80.0452 93.8938 78.1402C93.8938 76.2352 95.4368 74.6923 97.3418 74.6923C99.2468 74.6923 100.79 76.2352 100.79 78.1402Z" fill="#1D293F"/>
<path fill-rule="evenodd" clip-rule="evenodd" d="M120.098 78.1402C120.098 80.0452 118.555 81.5882 116.65 81.5882C114.745 81.5882 113.202 80.0452 113.202 78.1402C113.202 76.2352 114.745 74.6923 116.65 74.6923C118.555 74.6923 120.098 76.2352 120.098 78.1402Z" fill="#1D293F"/>
<path fill-rule="evenodd" clip-rule="evenodd" d="M138.027 78.1402C138.027 80.0452 136.484 81.5882 134.579 81.5882C132.674 81.5882 131.131 80.0452 131.131 78.1402C131.131 76.2352 132.674 74.6923 134.579 74.6923C136.484 74.6923 138.027 76.2352 138.027 78.1402Z" fill="#1D293F"/>
<path fill-rule="evenodd" clip-rule="evenodd" d="M157.336 78.1402C157.336 80.0452 155.793 81.5882 153.888 81.5882C151.983 81.5882 150.44 80.0452 150.44 78.1402C150.44 76.2352 151.983 74.6923 153.888 74.6923C155.793 74.6923 157.336 76.2352 157.336 78.1402Z" fill="#1D293F"/>
<path fill-rule="evenodd" clip-rule="evenodd" d="M175.266 78.1402C175.266 80.0452 173.723 81.5882 171.818 81.5882C169.913 81.5882 168.37 80.0452 168.37 78.1402C168.37 76.2352 169.913 74.6923 171.818 74.6923C173.723 74.6923 175.266 76.2352 175.266 78.1402Z" fill="#1D293F"/>
<path fill-rule="evenodd" clip-rule="evenodd" d="M193.196 78.1402C193.196 80.0452 191.653 81.5882 189.748 81.5882C187.843 81.5882 186.3 80.0452 186.3 78.1402C186.3 76.2352 187.843 74.6923 189.748 74.6923C191.653 74.6923 193.196 76.2352 193.196 78.1402Z" fill="#1D293F"/>
<path fill-rule="evenodd" clip-rule="evenodd" d="M212.504 78.1402C212.504 80.0452 210.961 81.5882 209.056 81.5882C207.151 81.5882 205.608 80.0452 205.608 78.1402C205.608 76.2352 207.151 74.6923 209.056 74.6923C210.961 74.6923 212.504 76.2352 212.504 78.1402Z" fill="#1D293F"/>
<path fill-rule="evenodd" clip-rule="evenodd" d="M7.00436 96.0686C7.00436 97.9736 5.46139 99.5166 3.55638 99.5166C1.65137 99.5166 0.108398 97.9736 0.108398 96.0686C0.108398 94.1636 1.65137 92.6206 3.55638 92.6206C5.46139 92.6206 7.00436 94.1636 7.00436 96.0686Z" fill="#1D293F"/>
<path fill-rule="evenodd" clip-rule="evenodd" d="M26.3134 96.0687C26.3134 97.9737 24.7705 99.5167 22.8655 99.5167C20.9605 99.5167 19.4175 97.9737 19.4175 96.0687C19.4175 94.1637 20.9605 92.6207 22.8655 92.6207C24.7705 92.6207 26.3134 94.1637 26.3134 96.0687Z" fill="#1D293F"/>
<path fill-rule="evenodd" clip-rule="evenodd" d="M44.2431 96.0687C44.2431 97.9737 42.7002 99.5167 40.7951 99.5167C38.8901 99.5167 37.3472 97.9737 37.3472 96.0687C37.3472 94.1637 38.8901 92.6207 40.7951 92.6207C42.7002 92.6207 44.2431 94.1637 44.2431 96.0687Z" fill="#1D293F"/>
<path fill-rule="evenodd" clip-rule="evenodd" d="M62.1716 96.0687C62.1716 97.9737 60.6286 99.5167 58.7236 99.5167C56.8186 99.5167 55.2756 97.9737 55.2756 96.0687C55.2756 94.1637 56.8186 92.6207 58.7236 92.6207C60.6286 92.6207 62.1716 94.1637 62.1716 96.0687Z" fill="#1D293F"/>
<path fill-rule="evenodd" clip-rule="evenodd" d="M81.4807 96.0686C81.4807 97.9736 79.9377 99.5166 78.0327 99.5166C76.1277 99.5166 74.5847 97.9736 74.5847 96.0686C74.5847 94.1636 76.1277 92.6206 78.0327 92.6206C79.9377 92.6206 81.4807 94.1636 81.4807 96.0686Z" fill="#1D293F"/>
<path fill-rule="evenodd" clip-rule="evenodd" d="M100.79 96.0687C100.79 97.9737 99.2468 99.5167 97.3418 99.5167C95.4368 99.5167 93.8938 97.9737 93.8938 96.0687C93.8938 94.1637 95.4368 92.6207 97.3418 92.6207C99.2468 92.6207 100.79 94.1637 100.79 96.0687Z" fill="#1D293F"/>
<path fill-rule="evenodd" clip-rule="evenodd" d="M120.098 96.0687C120.098 97.9737 118.555 99.5167 116.65 99.5167C114.745 99.5167 113.202 97.9737 113.202 96.0687C113.202 94.1637 114.745 92.6207 116.65 92.6207C118.555 92.6207 120.098 94.1637 120.098 96.0687Z" fill="#1D293F"/>
<path fill-rule="evenodd" clip-rule="evenodd" d="M138.027 96.0687C138.027 97.9737 136.484 99.5167 134.579 99.5167C132.674 99.5167 131.131 97.9737 131.131 96.0687C131.131 94.1637 132.674 92.6207 134.579 92.6207C136.484 92.6207 138.027 94.1637 138.027 96.0687Z" fill="#1D293F"/>
<path fill-rule="evenodd" clip-rule="evenodd" d="M157.336 96.0686C157.336 97.9736 155.793 99.5166 153.888 99.5166C151.983 99.5166 150.44 97.9736 150.44 96.0686C150.44 94.1636 151.983 92.6206 153.888 92.6206C155.793 92.6206 157.336 94.1636 157.336 96.0686Z" fill="#1D293F"/>
<path fill-rule="evenodd" clip-rule="evenodd" d="M175.266 96.0687C175.266 97.9737 173.723 99.5167 171.818 99.5167C169.913 99.5167 168.37 97.9737 168.37 96.0687C168.37 94.1637 169.913 92.6207 171.818 92.6207C173.723 92.6207 175.266 94.1637 175.266 96.0687Z" fill="#1D293F"/>
<path fill-rule="evenodd" clip-rule="evenodd" d="M193.196 96.0687C193.196 97.9737 191.653 99.5167 189.748 99.5167C187.843 99.5167 186.3 97.9737 186.3 96.0687C186.3 94.1637 187.843 92.6207 189.748 92.6207C191.653 92.6207 193.196 94.1637 193.196 96.0687Z" fill="#1D293F"/>
<path fill-rule="evenodd" clip-rule="evenodd" d="M212.504 96.0687C212.504 97.9737 210.961 99.5167 209.056 99.5167C207.151 99.5167 205.608 97.9737 205.608 96.0687C205.608 94.1637 207.151 92.6207 209.056 92.6207C210.961 92.6207 212.504 94.1637 212.504 96.0687Z" fill="#1D293F"/>
<path fill-rule="evenodd" clip-rule="evenodd" d="M7.00436 115.378C7.00436 117.283 5.46139 118.826 3.55638 118.826C1.65137 118.826 0.108398 117.283 0.108398 115.378C0.108398 113.473 1.65137 111.93 3.55638 111.93C5.46139 111.93 7.00436 113.473 7.00436 115.378Z" fill="#1D293F"/>
<path fill-rule="evenodd" clip-rule="evenodd" d="M26.3134 115.378C26.3134 117.283 24.7705 118.826 22.8655 118.826C20.9605 118.826 19.4175 117.283 19.4175 115.378C19.4175 113.473 20.9605 111.93 22.8655 111.93C24.7705 111.93 26.3134 113.473 26.3134 115.378Z" fill="#1D293F"/>
<path fill-rule="evenodd" clip-rule="evenodd" d="M44.2431 115.378C44.2431 117.283 42.7002 118.826 40.7951 118.826C38.8901 118.826 37.3472 117.283 37.3472 115.378C37.3472 113.473 38.8901 111.93 40.7951 111.93C42.7002 111.93 44.2431 113.473 44.2431 115.378Z" fill="#1D293F"/>
<path fill-rule="evenodd" clip-rule="evenodd" d="M62.1716 115.378C62.1716 117.283 60.6286 118.826 58.7236 118.826C56.8186 118.826 55.2756 117.283 55.2756 115.378C55.2756 113.473 56.8186 111.93 58.7236 111.93C60.6286 111.93 62.1716 113.473 62.1716 115.378Z" fill="#1D293F"/>
<path fill-rule="evenodd" clip-rule="evenodd" d="M81.4807 115.378C81.4807 117.283 79.9377 118.826 78.0327 118.826C76.1277 118.826 74.5847 117.283 74.5847 115.378C74.5847 113.473 76.1277 111.93 78.0327 111.93C79.9377 111.93 81.4807 113.473 81.4807 115.378Z" fill="#1D293F"/>
<path fill-rule="evenodd" clip-rule="evenodd" d="M100.79 115.378C100.79 117.283 99.2468 118.826 97.3418 118.826C95.4368 118.826 93.8938 117.283 93.8938 115.378C93.8938 113.473 95.4368 111.93 97.3418 111.93C99.2468 111.93 100.79 113.473 100.79 115.378Z" fill="#1D293F"/>
<path fill-rule="evenodd" clip-rule="evenodd" d="M120.098 115.378C120.098 117.283 118.555 118.826 116.65 118.826C114.745 118.826 113.202 117.283 113.202 115.378C113.202 113.473 114.745 111.93 116.65 111.93C118.555 111.93 120.098 113.473 120.098 115.378Z" fill="#1D293F"/>
<path fill-rule="evenodd" clip-rule="evenodd" d="M138.027 115.378C138.027 117.283 136.484 118.826 134.579 118.826C132.674 118.826 131.131 117.283 131.131 115.378C131.131 113.473 132.674 111.93 134.579 111.93C136.484 111.93 138.027 113.473 138.027 115.378Z" fill="#1D293F"/>
<path fill-rule="evenodd" clip-rule="evenodd" d="M157.336 115.378C157.336 117.283 155.793 118.826 153.888 118.826C151.983 118.826 150.44 117.283 150.44 115.378C150.44 113.473 151.983 111.93 153.888 111.93C155.793 111.93 157.336 113.473 157.336 115.378Z" fill="#1D293F"/>
<path fill-rule="evenodd" clip-rule="evenodd" d="M175.266 115.378C175.266 117.283 173.723 118.826 171.818 118.826C169.913 118.826 168.37 117.283 168.37 115.378C168.37 113.473 169.913 111.93 171.818 111.93C173.723 111.93 175.266 113.473 175.266 115.378Z" fill="#1D293F"/>
<path fill-rule="evenodd" clip-rule="evenodd" d="M193.196 115.378C193.196 117.283 191.653 118.826 189.748 118.826C187.843 118.826 186.3 117.283 186.3 115.378C186.3 113.473 187.843 111.93 189.748 111.93C191.653 111.93 193.196 113.473 193.196 115.378Z" fill="#1D293F"/>
<path fill-rule="evenodd" clip-rule="evenodd" d="M212.504 115.378C212.504 117.283 210.961 118.826 209.056 118.826C207.151 118.826 205.608 117.283 205.608 115.378C205.608 113.473 207.151 111.93 209.056 111.93C210.961 111.93 212.504 113.473 212.504 115.378Z" fill="#1D293F"/>
<path fill-rule="evenodd" clip-rule="evenodd" d="M7.00436 134.687C7.00436 136.592 5.46139 138.135 3.55638 138.135C1.65137 138.135 0.108398 136.592 0.108398 134.687C0.108398 132.782 1.65137 131.239 3.55638 131.239C5.46139 131.239 7.00436 132.782 7.00436 134.687Z" fill="#1D293F"/>
<path fill-rule="evenodd" clip-rule="evenodd" d="M26.3134 134.687C26.3134 136.592 24.7705 138.135 22.8655 138.135C20.9605 138.135 19.4175 136.592 19.4175 134.687C19.4175 132.782 20.9605 131.239 22.8655 131.239C24.7705 131.239 26.3134 132.782 26.3134 134.687Z" fill="#1D293F"/>
<path fill-rule="evenodd" clip-rule="evenodd" d="M44.2431 134.687C44.2431 136.592 42.7002 138.135 40.7951 138.135C38.8901 138.135 37.3472 136.592 37.3472 134.687C37.3472 132.782 38.8901 131.239 40.7951 131.239C42.7002 131.239 44.2431 132.782 44.2431 134.687Z" fill="#1D293F"/>
<path fill-rule="evenodd" clip-rule="evenodd" d="M62.1716 134.687C62.1716 136.592 60.6286 138.135 58.7236 138.135C56.8186 138.135 55.2756 136.592 55.2756 134.687C55.2756 132.782 56.8186 131.239 58.7236 131.239C60.6286 131.239 62.1716 132.782 62.1716 134.687Z" fill="#1D293F"/>
<path fill-rule="evenodd" clip-rule="evenodd" d="M81.4807 134.687C81.4807 136.592 79.9377 138.135 78.0327 138.135C76.1277 138.135 74.5847 136.592 74.5847 134.687C74.5847 132.782 76.1277 131.239 78.0327 131.239C79.9377 131.239 81.4807 132.782 81.4807 134.687Z" fill="#1D293F"/>
<path fill-rule="evenodd" clip-rule="evenodd" d="M100.79 134.687C100.79 136.592 99.2468 138.135 97.3418 138.135C95.4368 138.135 93.8938 136.592 93.8938 134.687C93.8938 132.782 95.4368 131.239 97.3418 131.239C99.2468 131.239 100.79 132.782 100.79 134.687Z" fill="#1D293F"/>
<path fill-rule="evenodd" clip-rule="evenodd" d="M120.098 134.687C120.098 136.592 118.555 138.135 116.65 138.135C114.745 138.135 113.202 136.592 113.202 134.687C113.202 132.782 114.745 131.239 116.65 131.239C118.555 131.239 120.098 132.782 120.098 134.687Z" fill="#1D293F"/>
<path fill-rule="evenodd" clip-rule="evenodd" d="M138.027 134.687C138.027 136.592 136.484 138.135 134.579 138.135C132.674 138.135 131.131 136.592 131.131 134.687C131.131 132.782 132.674 131.239 134.579 131.239C136.484 131.239 138.027 132.782 138.027 134.687Z" fill="#1D293F"/>
<path fill-rule="evenodd" clip-rule="evenodd" d="M157.336 134.687C157.336 136.592 155.793 138.135 153.888 138.135C151.983 138.135 150.44 136.592 150.44 134.687C150.44 132.782 151.983 131.239 153.888 131.239C155.793 131.239 157.336 132.782 157.336 134.687Z" fill="#1D293F"/>
<path fill-rule="evenodd" clip-rule="evenodd" d="M175.266 134.687C175.266 136.592 173.723 138.135 171.818 138.135C169.913 138.135 168.37 136.592 168.37 134.687C168.37 132.782 169.913 131.239 171.818 131.239C173.723 131.239 175.266 132.782 175.266 134.687Z" fill="#1D293F"/>
<path fill-rule="evenodd" clip-rule="evenodd" d="M193.196 134.687C193.196 136.592 191.653 138.135 189.748 138.135C187.843 138.135 186.3 136.592 186.3 134.687C186.3 132.782 187.843 131.239 189.748 131.239C191.653 131.239 193.196 132.782 193.196 134.687Z" fill="#1D293F"/>
<path fill-rule="evenodd" clip-rule="evenodd" d="M212.504 134.687C212.504 136.592 210.961 138.135 209.056 138.135C207.151 138.135 205.608 136.592 205.608 134.687C205.608 132.782 207.151 131.239 209.056 131.239C210.961 131.239 212.504 132.782 212.504 134.687Z" fill="#1D293F"/>
<path fill-rule="evenodd" clip-rule="evenodd" d="M7.00436 152.615C7.00436 154.52 5.46139 156.063 3.55638 156.063C1.65137 156.063 0.108398 154.52 0.108398 152.615C0.108398 150.71 1.65137 149.167 3.55638 149.167C5.46139 149.167 7.00436 150.71 7.00436 152.615Z" fill="#1D293F"/>
<path fill-rule="evenodd" clip-rule="evenodd" d="M26.3134 152.615C26.3134 154.52 24.7705 156.063 22.8655 156.063C20.9605 156.063 19.4175 154.52 19.4175 152.615C19.4175 150.71 20.9605 149.167 22.8655 149.167C24.7705 149.167 26.3134 150.71 26.3134 152.615Z" fill="#1D293F"/>
<path fill-rule="evenodd" clip-rule="evenodd" d="M44.2431 152.615C44.2431 154.52 42.7002 156.063 40.7951 156.063C38.8901 156.063 37.3472 154.52 37.3472 152.615C37.3472 150.71 38.8901 149.167 40.7951 149.167C42.7002 149.167 44.2431 150.71 44.2431 152.615Z" fill="#1D293F"/>
<path fill-rule="evenodd" clip-rule="evenodd" d="M62.1716 152.615C62.1716 154.52 60.6286 156.063 58.7236 156.063C56.8186 156.063 55.2756 154.52 55.2756 152.615C55.2756 150.71 56.8186 149.167 58.7236 149.167C60.6286 149.167 62.1716 150.71 62.1716 152.615Z" fill="#1D293F"/>
<path fill-rule="evenodd" clip-rule="evenodd" d="M81.4807 152.615C81.4807 154.52 79.9377 156.063 78.0327 156.063C76.1277 156.063 74.5847 154.52 74.5847 152.615C74.5847 150.71 76.1277 149.167 78.0327 149.167C79.9377 149.167 81.4807 150.71 81.4807 152.615Z" fill="#1D293F"/>
<path fill-rule="evenodd" clip-rule="evenodd" d="M100.79 152.615C100.79 154.52 99.2468 156.063 97.3418 156.063C95.4368 156.063 93.8938 154.52 93.8938 152.615C93.8938 150.71 95.4368 149.167 97.3418 149.167C99.2468 149.167 100.79 150.71 100.79 152.615Z" fill="#1D293F"/>
<path fill-rule="evenodd" clip-rule="evenodd" d="M120.098 152.615C120.098 154.52 118.555 156.063 116.65 156.063C114.745 156.063 113.202 154.52 113.202 152.615C113.202 150.71 114.745 149.167 116.65 149.167C118.555 149.167 120.098 150.71 120.098 152.615Z" fill="#1D293F"/>
<path fill-rule="evenodd" clip-rule="evenodd" d="M138.027 152.615C138.027 154.52 136.484 156.063 134.579 156.063C132.674 156.063 131.131 154.52 131.131 152.615C131.131 150.71 132.674 149.167 134.579 149.167C136.484 149.167 138.027 150.71 138.027 152.615Z" fill="#1D293F"/>
<path fill-rule="evenodd" clip-rule="evenodd" d="M157.336 152.615C157.336 154.52 155.793 156.063 153.888 156.063C151.983 156.063 150.44 154.52 150.44 152.615C150.44 150.71 151.983 149.167 153.888 149.167C155.793 149.167 157.336 150.71 157.336 152.615Z" fill="#1D293F"/>
<path fill-rule="evenodd" clip-rule="evenodd" d="M175.266 152.615C175.266 154.52 173.723 156.063 171.818 156.063C169.913 156.063 168.37 154.52 168.37 152.615C168.37 150.71 169.913 149.167 171.818 149.167C173.723 149.167 175.266 150.71 175.266 152.615Z" fill="#1D293F"/>
<path fill-rule="evenodd" clip-rule="evenodd" d="M193.196 152.615C193.196 154.52 191.653 156.063 189.748 156.063C187.843 156.063 186.3 154.52 186.3 152.615C186.3 150.71 187.843 149.167 189.748 149.167C191.653 149.167 193.196 150.71 193.196 152.615Z" fill="#1D293F"/>
<path fill-rule="evenodd" clip-rule="evenodd" d="M212.504 152.615C212.504 154.52 210.961 156.063 209.056 156.063C207.151 156.063 205.608 154.52 205.608 152.615C205.608 150.71 207.151 149.167 209.056 149.167C210.961 149.167 212.504 150.71 212.504 152.615Z" fill="#1D293F"/>
<path fill-rule="evenodd" clip-rule="evenodd" d="M7.00436 171.924C7.00436 173.829 5.46139 175.372 3.55638 175.372C1.65137 175.372 0.108398 173.829 0.108398 171.924C0.108398 170.019 1.65137 168.476 3.55638 168.476C5.46139 168.476 7.00436 170.019 7.00436 171.924Z" fill="#1D293F"/>
<path fill-rule="evenodd" clip-rule="evenodd" d="M26.3134 171.924C26.3134 173.829 24.7705 175.372 22.8655 175.372C20.9605 175.372 19.4175 173.829 19.4175 171.924C19.4175 170.019 20.9605 168.476 22.8655 168.476C24.7705 168.476 26.3134 170.019 26.3134 171.924Z" fill="#1D293F"/>
<path fill-rule="evenodd" clip-rule="evenodd" d="M44.2431 171.924C44.2431 173.829 42.7002 175.372 40.7951 175.372C38.8901 175.372 37.3472 173.829 37.3472 171.924C37.3472 170.019 38.8901 168.476 40.7951 168.476C42.7002 168.476 44.2431 170.019 44.2431 171.924Z" fill="#1D293F"/>
<path fill-rule="evenodd" clip-rule="evenodd" d="M62.1716 171.924C62.1716 173.829 60.6286 175.372 58.7236 175.372C56.8186 175.372 55.2756 173.829 55.2756 171.924C55.2756 170.019 56.8186 168.476 58.7236 168.476C60.6286 168.476 62.1716 170.019 62.1716 171.924Z" fill="#1D293F"/>
<path fill-rule="evenodd" clip-rule="evenodd" d="M81.4807 171.924C81.4807 173.829 79.9377 175.372 78.0327 175.372C76.1277 175.372 74.5847 173.829 74.5847 171.924C74.5847 170.019 76.1277 168.476 78.0327 168.476C79.9377 168.476 81.4807 170.019 81.4807 171.924Z" fill="#1D293F"/>
<path fill-rule="evenodd" clip-rule="evenodd" d="M100.79 171.924C100.79 173.829 99.2468 175.372 97.3418 175.372C95.4368 175.372 93.8938 173.829 93.8938 171.924C93.8938 170.019 95.4368 168.476 97.3418 168.476C99.2468 168.476 100.79 170.019 100.79 171.924Z" fill="#1D293F"/>
<path fill-rule="evenodd" clip-rule="evenodd" d="M120.098 171.924C120.098 173.829 118.555 175.372 116.65 175.372C114.745 175.372 113.202 173.829 113.202 171.924C113.202 170.019 114.745 168.476 116.65 168.476C118.555 168.476 120.098 170.019 120.098 171.924Z" fill="#1D293F"/>
<path fill-rule="evenodd" clip-rule="evenodd" d="M138.027 171.924C138.027 173.829 136.484 175.372 134.579 175.372C132.674 175.372 131.131 173.829 131.131 171.924C131.131 170.019 132.674 168.476 134.579 168.476C136.484 168.476 138.027 170.019 138.027 171.924Z" fill="#1D293F"/>
<path fill-rule="evenodd" clip-rule="evenodd" d="M157.336 171.924C157.336 173.829 155.793 175.372 153.888 175.372C151.983 175.372 150.44 173.829 150.44 171.924C150.44 170.019 151.983 168.476 153.888 168.476C155.793 168.476 157.336 170.019 157.336 171.924Z" fill="#1D293F"/>
<path fill-rule="evenodd" clip-rule="evenodd" d="M175.266 171.924C175.266 173.829 173.723 175.372 171.818 175.372C169.913 175.372 168.37 173.829 168.37 171.924C168.37 170.019 169.913 168.476 171.818 168.476C173.723 168.476 175.266 170.019 175.266 171.924Z" fill="#1D293F"/>
<path fill-rule="evenodd" clip-rule="evenodd" d="M193.196 171.924C193.196 173.829 191.653 175.372 189.748 175.372C187.843 175.372 186.3 173.829 186.3 171.924C186.3 170.019 187.843 168.476 189.748 168.476C191.653 168.476 193.196 170.019 193.196 171.924Z" fill="#1D293F"/>
<path fill-rule="evenodd" clip-rule="evenodd" d="M212.504 171.924C212.504 173.829 210.961 175.372 209.056 175.372C207.151 175.372 205.608 173.829 205.608 171.924C205.608 170.019 207.151 168.476 209.056 168.476C210.961 168.476 212.504 170.019 212.504 171.924Z" fill="#1D293F"/>
<path fill-rule="evenodd" clip-rule="evenodd" d="M7.00436 189.853C7.00436 191.758 5.46139 193.301 3.55638 193.301C1.65137 193.301 0.108398 191.758 0.108398 189.853C0.108398 187.948 1.65137 186.405 3.55638 186.405C5.46139 186.405 7.00436 187.948 7.00436 189.853Z" fill="#1D293F"/>
<path fill-rule="evenodd" clip-rule="evenodd" d="M26.3134 189.853C26.3134 191.758 24.7705 193.301 22.8655 193.301C20.9605 193.301 19.4175 191.758 19.4175 189.853C19.4175 187.948 20.9605 186.405 22.8655 186.405C24.7705 186.405 26.3134 187.948 26.3134 189.853Z" fill="#1D293F"/>
<path fill-rule="evenodd" clip-rule="evenodd" d="M44.2431 189.853C44.2431 191.758 42.7002 193.301 40.7951 193.301C38.8901 193.301 37.3472 191.758 37.3472 189.853C37.3472 187.948 38.8901 186.405 40.7951 186.405C42.7002 186.405 44.2431 187.948 44.2431 189.853Z" fill="#1D293F"/>
<path fill-rule="evenodd" clip-rule="evenodd" d="M62.1716 189.853C62.1716 191.758 60.6286 193.301 58.7236 193.301C56.8186 193.301 55.2756 191.758 55.2756 189.853C55.2756 187.948 56.8186 186.405 58.7236 186.405C60.6286 186.405 62.1716 187.948 62.1716 189.853Z" fill="#1D293F"/>
<path fill-rule="evenodd" clip-rule="evenodd" d="M81.4807 189.853C81.4807 191.758 79.9377 193.301 78.0327 193.301C76.1277 193.301 74.5847 191.758 74.5847 189.853C74.5847 187.948 76.1277 186.405 78.0327 186.405C79.9377 186.405 81.4807 187.948 81.4807 189.853Z" fill="#1D293F"/>
<path fill-rule="evenodd" clip-rule="evenodd" d="M100.79 189.853C100.79 191.758 99.2468 193.301 97.3418 193.301C95.4368 193.301 93.8938 191.758 93.8938 189.853C93.8938 187.948 95.4368 186.405 97.3418 186.405C99.2468 186.405 100.79 187.948 100.79 189.853Z" fill="#1D293F"/>
<path fill-rule="evenodd" clip-rule="evenodd" d="M120.098 189.853C120.098 191.758 118.555 193.301 116.65 193.301C114.745 193.301 113.202 191.758 113.202 189.853C113.202 187.948 114.745 186.405 116.65 186.405C118.555 186.405 120.098 187.948 120.098 189.853Z" fill="#1D293F"/>
<path fill-rule="evenodd" clip-rule="evenodd" d="M138.027 189.853C138.027 191.758 136.484 193.301 134.579 193.301C132.674 193.301 131.131 191.758 131.131 189.853C131.131 187.948 132.674 186.405 134.579 186.405C136.484 186.405 138.027 187.948 138.027 189.853Z" fill="#1D293F"/>
<path fill-rule="evenodd" clip-rule="evenodd" d="M157.336 189.853C157.336 191.758 155.793 193.301 153.888 193.301C151.983 193.301 150.44 191.758 150.44 189.853C150.44 187.948 151.983 186.405 153.888 186.405C155.793 186.405 157.336 187.948 157.336 189.853Z" fill="#1D293F"/>
<path fill-rule="evenodd" clip-rule="evenodd" d="M175.266 189.853C175.266 191.758 173.723 193.301 171.818 193.301C169.913 193.301 168.37 191.758 168.37 189.853C168.37 187.948 169.913 186.405 171.818 186.405C173.723 186.405 175.266 187.948 175.266 189.853Z" fill="#1D293F"/>
<path fill-rule="evenodd" clip-rule="evenodd" d="M193.196 189.853C193.196 191.758 191.653 193.301 189.748 193.301C187.843 193.301 186.3 191.758 186.3 189.853C186.3 187.948 187.843 186.405 189.748 186.405C191.653 186.405 193.196 187.948 193.196 189.853Z" fill="#1D293F"/>
<path fill-rule="evenodd" clip-rule="evenodd" d="M212.504 189.853C212.504 191.758 210.961 193.301 209.056 193.301C207.151 193.301 205.608 191.758 205.608 189.853C205.608 187.948 207.151 186.405 209.056 186.405C210.961 186.405 212.504 187.948 212.504 189.853Z" fill="#1D293F"/>
<path fill-rule="evenodd" clip-rule="evenodd" d="M7.00436 209.162C7.00436 211.067 5.46139 212.61 3.55638 212.61C1.65137 212.61 0.108398 211.067 0.108398 209.162C0.108398 207.257 1.65137 205.714 3.55638 205.714C5.46139 205.714 7.00436 207.257 7.00436 209.162Z" fill="#1D293F"/>
<path fill-rule="evenodd" clip-rule="evenodd" d="M26.3134 209.162C26.3134 211.067 24.7705 212.61 22.8655 212.61C20.9605 212.61 19.4175 211.067 19.4175 209.162C19.4175 207.257 20.9605 205.714 22.8655 205.714C24.7705 205.714 26.3134 207.257 26.3134 209.162Z" fill="#1D293F"/>
<path fill-rule="evenodd" clip-rule="evenodd" d="M44.2431 209.162C44.2431 211.067 42.7002 212.61 40.7951 212.61C38.8901 212.61 37.3472 211.067 37.3472 209.162C37.3472 207.257 38.8901 205.714 40.7951 205.714C42.7002 205.714 44.2431 207.257 44.2431 209.162Z" fill="#1D293F"/>
<path fill-rule="evenodd" clip-rule="evenodd" d="M62.1716 209.162C62.1716 211.067 60.6286 212.61 58.7236 212.61C56.8186 212.61 55.2756 211.067 55.2756 209.162C55.2756 207.257 56.8186 205.714 58.7236 205.714C60.6286 205.714 62.1716 207.257 62.1716 209.162Z" fill="#1D293F"/>
<path fill-rule="evenodd" clip-rule="evenodd" d="M81.4807 209.162C81.4807 211.067 79.9377 212.61 78.0327 212.61C76.1277 212.61 74.5847 211.067 74.5847 209.162C74.5847 207.257 76.1277 205.714 78.0327 205.714C79.9377 205.714 81.4807 207.257 81.4807 209.162Z" fill="#1D293F"/>
<path fill-rule="evenodd" clip-rule="evenodd" d="M100.79 209.162C100.79 211.067 99.2468 212.61 97.3418 212.61C95.4368 212.61 93.8938 211.067 93.8938 209.162C93.8938 207.257 95.4368 205.714 97.3418 205.714C99.2468 205.714 100.79 207.257 100.79 209.162Z" fill="#1D293F"/>
<path fill-rule="evenodd" clip-rule="evenodd" d="M120.098 209.162C120.098 211.067 118.555 212.61 116.65 212.61C114.745 212.61 113.202 211.067 113.202 209.162C113.202 207.257 114.745 205.714 116.65 205.714C118.555 205.714 120.098 207.257 120.098 209.162Z" fill="#1D293F"/>
<path fill-rule="evenodd" clip-rule="evenodd" d="M138.027 209.162C138.027 211.067 136.484 212.61 134.579 212.61C132.674 212.61 131.131 211.067 131.131 209.162C131.131 207.257 132.674 205.714 134.579 205.714C136.484 205.714 138.027 207.257 138.027 209.162Z" fill="#1D293F"/>
<path fill-rule="evenodd" clip-rule="evenodd" d="M157.336 209.162C157.336 211.067 155.793 212.61 153.888 212.61C151.983 212.61 150.44 211.067 150.44 209.162C150.44 207.257 151.983 205.714 153.888 205.714C155.793 205.714 157.336 207.257 157.336 209.162Z" fill="#1D293F"/>
<path fill-rule="evenodd" clip-rule="evenodd" d="M175.266 209.162C175.266 211.067 173.723 212.61 171.818 212.61C169.913 212.61 168.37 211.067 168.37 209.162C168.37 207.257 169.913 205.714 171.818 205.714C173.723 205.714 175.266 207.257 175.266 209.162Z" fill="#1D293F"/>
<path fill-rule="evenodd" clip-rule="evenodd" d="M193.196 209.162C193.196 211.067 191.653 212.61 189.748 212.61C187.843 212.61 186.3 211.067 186.3 209.162C186.3 207.257 187.843 205.714 189.748 205.714C191.653 205.714 193.196 207.257 193.196 209.162Z" fill="#1D293F"/>
<path fill-rule="evenodd" clip-rule="evenodd" d="M212.504 209.162C212.504 211.067 210.961 212.61 209.056 212.61C207.151 212.61 205.608 211.067 205.608 209.162C205.608 207.257 207.151 205.714 209.056 205.714C210.961 205.714 212.504 207.257 212.504 209.162Z" fill="#1D293F"/>
<path fill-rule="evenodd" clip-rule="evenodd" d="M7.00436 227.093C7.00436 228.998 5.46139 230.541 3.55638 230.541C1.65137 230.541 0.108398 228.998 0.108398 227.093C0.108398 225.188 1.65137 223.645 3.55638 223.645C5.46139 223.645 7.00436 225.188 7.00436 227.093Z" fill="#1D293F"/>
<path fill-rule="evenodd" clip-rule="evenodd" d="M26.3134 227.093C26.3134 228.998 24.7705 230.541 22.8655 230.541C20.9605 230.541 19.4175 228.998 19.4175 227.093C19.4175 225.188 20.9605 223.645 22.8655 223.645C24.7705 223.645 26.3134 225.188 26.3134 227.093Z" fill="#1D293F"/>
<path fill-rule="evenodd" clip-rule="evenodd" d="M44.2431 227.093C44.2431 228.998 42.7002 230.541 40.7951 230.541C38.8901 230.541 37.3472 228.998 37.3472 227.093C37.3472 225.188 38.8901 223.645 40.7951 223.645C42.7002 223.645 44.2431 225.188 44.2431 227.093Z" fill="#1D293F"/>
<path fill-rule="evenodd" clip-rule="evenodd" d="M62.1716 227.093C62.1716 228.998 60.6286 230.541 58.7236 230.541C56.8186 230.541 55.2756 228.998 55.2756 227.093C55.2756 225.188 56.8186 223.645 58.7236 223.645C60.6286 223.645 62.1716 225.188 62.1716 227.093Z" fill="#1D293F"/>
<path fill-rule="evenodd" clip-rule="evenodd" d="M81.4807 227.093C81.4807 228.998 79.9377 230.541 78.0327 230.541C76.1277 230.541 74.5847 228.998 74.5847 227.093C74.5847 225.188 76.1277 223.645 78.0327 223.645C79.9377 223.645 81.4807 225.188 81.4807 227.093Z" fill="#1D293F"/>
<path fill-rule="evenodd" clip-rule="evenodd" d="M100.79 227.093C100.79 228.998 99.2468 230.541 97.3418 230.541C95.4368 230.541 93.8938 228.998 93.8938 227.093C93.8938 225.188 95.4368 223.645 97.3418 223.645C99.2468 223.645 100.79 225.188 100.79 227.093Z" fill="#1D293F"/>
<path fill-rule="evenodd" clip-rule="evenodd" d="M120.098 227.093C120.098 228.998 118.555 230.541 116.65 230.541C114.745 230.541 113.202 228.998 113.202 227.093C113.202 225.188 114.745 223.645 116.65 223.645C118.555 223.645 120.098 225.188 120.098 227.093Z" fill="#1D293F"/>
<path fill-rule="evenodd" clip-rule="evenodd" d="M138.027 227.093C138.027 228.998 136.484 230.541 134.579 230.541C132.674 230.541 131.131 228.998 131.131 227.093C131.131 225.188 132.674 223.645 134.579 223.645C136.484 223.645 138.027 225.188 138.027 227.093Z" fill="#1D293F"/>
<path fill-rule="evenodd" clip-rule="evenodd" d="M157.336 227.093C157.336 228.998 155.793 230.541 153.888 230.541C151.983 230.541 150.44 228.998 150.44 227.093C150.44 225.188 151.983 223.645 153.888 223.645C155.793 223.645 157.336 225.188 157.336 227.093Z" fill="#1D293F"/>
<path fill-rule="evenodd" clip-rule="evenodd" d="M175.266 227.093C175.266 228.998 173.723 230.541 171.818 230.541C169.913 230.541 168.37 228.998 168.37 227.093C168.37 225.188 169.913 223.645 171.818 223.645C173.723 223.645 175.266 225.188 175.266 227.093Z" fill="#1D293F"/>
<path fill-rule="evenodd" clip-rule="evenodd" d="M193.196 227.093C193.196 228.998 191.653 230.541 189.748 230.541C187.843 230.541 186.3 228.998 186.3 227.093C186.3 225.188 187.843 223.645 189.748 223.645C191.653 223.645 193.196 225.188 193.196 227.093Z" fill="#1D293F"/>
<path fill-rule="evenodd" clip-rule="evenodd" d="M212.504 227.093C212.504 228.998 210.961 230.541 209.056 230.541C207.151 230.541 205.608 228.998 205.608 227.093C205.608 225.188 207.151 223.645 209.056 223.645C210.961 223.645 212.504 225.188 212.504 227.093Z" fill="#1D293F"/>
<path fill-rule="evenodd" clip-rule="evenodd" d="M26.3134 3.6627C26.3134 5.56771 24.7705 7.11068 22.8655 7.11068C20.9605 7.11068 19.4175 5.56771 19.4175 3.6627C19.4175 1.75769 20.9605 0.214722 22.8655 0.214722C24.7705 0.214722 26.3134 1.75769 26.3134 3.6627Z" fill="#1D293F"/>
<path fill-rule="evenodd" clip-rule="evenodd" d="M44.2431 3.6627C44.2431 5.56771 42.7002 7.11068 40.7951 7.11068C38.8901 7.11068 37.3472 5.56771 37.3472 3.6627C37.3472 1.75769 38.8901 0.214722 40.7951 0.214722C42.7002 0.214722 44.2431 1.75769 44.2431 3.6627Z" fill="#1D293F"/>
<path fill-rule="evenodd" clip-rule="evenodd" d="M62.1716 3.6627C62.1716 5.56771 60.6286 7.11068 58.7236 7.11068C56.8186 7.11068 55.2756 5.56771 55.2756 3.6627C55.2756 1.75769 56.8186 0.214722 58.7236 0.214722C60.6286 0.214722 62.1716 1.75769 62.1716 3.6627Z" fill="#1D293F"/>
<path fill-rule="evenodd" clip-rule="evenodd" d="M81.4807 3.6627C81.4807 5.56771 79.9377 7.11068 78.0327 7.11068C76.1277 7.11068 74.5847 5.56771 74.5847 3.6627C74.5847 1.75769 76.1277 0.214722 78.0327 0.214722C79.9377 0.214722 81.4807 1.75769 81.4807 3.6627Z" fill="#1D293F"/>
<path fill-rule="evenodd" clip-rule="evenodd" d="M100.79 3.6627C100.79 5.56771 99.2468 7.11068 97.3418 7.11068C95.4368 7.11068 93.8938 5.56771 93.8938 3.6627C93.8938 1.75769 95.4368 0.214722 97.3418 0.214722C99.2468 0.214722 100.79 1.75769 100.79 3.6627Z" fill="#1D293F"/>
<path fill-rule="evenodd" clip-rule="evenodd" d="M120.098 3.6627C120.098 5.56771 118.555 7.11068 116.65 7.11068C114.745 7.11068 113.202 5.56771 113.202 3.6627C113.202 1.75769 114.745 0.214722 116.65 0.214722C118.555 0.214722 120.098 1.75769 120.098 3.6627Z" fill="#1D293F"/>
<path fill-rule="evenodd" clip-rule="evenodd" d="M138.027 3.6627C138.027 5.56771 136.484 7.11068 134.579 7.11068C132.674 7.11068 131.131 5.56771 131.131 3.6627C131.131 1.75769 132.674 0.214722 134.579 0.214722C136.484 0.214722 138.027 1.75769 138.027 3.6627Z" fill="#1D293F"/>
<path fill-rule="evenodd" clip-rule="evenodd" d="M157.336 3.6627C157.336 5.56771 155.793 7.11068 153.888 7.11068C151.983 7.11068 150.44 5.56771 150.44 3.6627C150.44 1.75769 151.983 0.214722 153.888 0.214722C155.793 0.214722 157.336 1.75769 157.336 3.6627Z" fill="#1D293F"/>
<path fill-rule="evenodd" clip-rule="evenodd" d="M175.266 3.6627C175.266 5.56771 173.723 7.11068 171.818 7.11068C169.913 7.11068 168.37 5.56771 168.37 3.6627C168.37 1.75769 169.913 0.214722 171.818 0.214722C173.723 0.214722 175.266 1.75769 175.266 3.6627Z" fill="#1D293F"/>
<path fill-rule="evenodd" clip-rule="evenodd" d="M193.196 3.6627C193.196 5.56771 191.653 7.11068 189.748 7.11068C187.843 7.11068 186.3 5.56771 186.3 3.6627C186.3 1.75769 187.843 0.214722 189.748 0.214722C191.653 0.214722 193.196 1.75769 193.196 3.6627Z" fill="#1D293F"/>
<path fill-rule="evenodd" clip-rule="evenodd" d="M212.504 3.6627C212.504 5.56771 210.961 7.11068 209.056 7.11068C207.151 7.11068 205.608 5.56771 205.608 3.6627C205.608 1.75769 207.151 0.214722 209.056 0.214722C210.961 0.214722 212.504 1.75769 212.504 3.6627Z" fill="#1D293F"/>
</g>
</svg>
