<svg width="32" height="32" viewBox="0 0 32 32" fill="none" xmlns="http://www.w3.org/2000/svg">
<path d="M18.6661 12.3199V16.1248H22.0774C22.3398 16.1248 22.471 16.3872 22.471 16.6496L21.9462 19.1425C21.9462 19.2737 21.6838 19.4049 21.5526 19.4049H18.6661V28.9827H14.73V19.5361H12.4996C12.2372 19.5361 12.106 19.4049 12.106 19.1425V16.6496C12.106 16.3872 12.2372 16.256 12.4996 16.256H14.73V11.9263C14.73 9.69587 16.4356 7.99023 18.6661 7.99023H22.2086C22.471 7.99023 22.6022 8.12144 22.6022 8.38384V11.5327C22.6022 11.7951 22.471 11.9263 22.2086 11.9263H19.0597C18.7973 11.9263 18.6661 12.0575 18.6661 12.3199Z" stroke="#4475F2" stroke-width="1.31203" stroke-miterlimit="10" stroke-linecap="round"/>
<path d="M19.978 28.9827H12.1058C5.54568 28.9827 2.92163 26.3587 2.92163 19.7985V11.9264C2.92163 5.36624 5.54568 2.74219 12.1058 2.74219H19.978C26.5381 2.74219 29.1622 5.36624 29.1622 11.9264V19.7985C29.1622 26.3587 26.5381 28.9827 19.978 28.9827Z" stroke="#4475F2" stroke-width="1.31203" stroke-linecap="round" stroke-linejoin="round"/>
</svg>
