<svg width="33" height="32" viewBox="0 0 33 32" fill="none" xmlns="http://www.w3.org/2000/svg">
<path d="M16.4852 2.74219H12.1555C9.66262 2.74219 7.69458 4.71023 7.69458 7.07188C7.69458 9.43352 9.66262 11.4016 12.0243 11.4016H16.4852V2.74219Z" stroke="#4475F2" stroke-width="1.31203" stroke-miterlimit="10"/>
<path d="M16.4848 11.5332H12.1551C9.79348 11.5332 7.82544 13.5012 7.82544 15.8629C7.82544 18.2245 9.79348 20.1926 12.1551 20.1926H16.4848V11.5332Z" stroke="#4475F2" stroke-width="1.31203" stroke-miterlimit="10"/>
<path d="M16.4848 20.1919H12.1551C9.79348 20.1919 7.82544 22.1599 7.82544 24.5216C7.82544 26.8832 9.79348 28.8513 12.1551 28.8513C14.5168 28.8513 16.4848 26.8832 16.4848 24.5216V20.1919Z" stroke="#4475F2" stroke-width="1.31203" stroke-miterlimit="10"/>
<path d="M16.4851 2.74219H20.8148C23.1764 2.74219 25.1445 4.71023 25.1445 7.07188C25.1445 9.43352 23.1764 11.4016 20.8148 11.4016H16.4851V2.74219Z" stroke="#4475F2" stroke-width="1.31203" stroke-miterlimit="10"/>
<path d="M20.8148 11.5332C23.1764 11.5332 25.1445 13.5012 25.1445 15.8629C25.1445 18.2245 23.1764 20.1926 20.8148 20.1926C18.4531 20.1926 16.4851 18.2245 16.4851 15.8629C16.4851 13.5012 18.4531 11.5332 20.8148 11.5332Z" stroke="#4475F2" stroke-width="1.31203" stroke-miterlimit="10"/>
</svg>
