<svg version="1.2" xmlns="http://www.w3.org/2000/svg" viewBox="0 0 41 45" width="41" height="45"><defs><linearGradient id="P" gradientUnits="userSpaceOnUse"/><linearGradient id="g1" x1="-65.3" y1="-5.3" x2="-50.7" y2="65.3" href="#P"><stop stop-color="#3d73ff"/><stop offset=".4" stop-color="#79aeff" stop-opacity=".8"/><stop offset=".7" stop-color="#918eff" stop-opacity=".6"/><stop offset="1" stop-color="#577aff" stop-opacity=".3"/></linearGradient></defs><style>.a{fill:url(#g1)}.b{fill:#79a7ff}</style><path class="a" d="m14.3 0.5c3.5 0 6.8 0.6 10 1.7 3.2 1.1 6.1 2.7 8.5 4.7 2.4 2.1 4.3 4.5 5.6 7.2 1.3 2.7 2 5.5 2 8.4 0 2.9-0.7 5.7-2 8.4-1.3 2.7-3.2 5.1-5.6 7.2-2.4 2-5.3 3.6-8.5 4.7-3.2 1.1-6.5 1.7-10 1.7v-22z"/><path class="b" d="m0.1 5.5c2.6 0 5.3 0.4 7.7 1.3 2.5 0.8 4.7 2.1 6.6 3.7 1.8 1.6 3.3 3.4 4.3 5.5 1 2.1 1.6 4.3 1.6 6.5 0 2.2-0.6 4.4-1.6 6.5-1 2.1-2.5 3.9-4.3 5.5-1.9 1.6-4.1 2.9-6.6 3.7-2.4 0.9-5.1 1.3-7.7 1.3v-17z"/></svg>