<svg width="228" height="44" viewBox="0 0 228 44" fill="none" xmlns="http://www.w3.org/2000/svg">
<path d="M7.23948 33.1876L0.656738 13.9618H2.79874L8.59782 31.0195L14.3708 13.9618H16.4867L9.90392 33.1876H7.23948Z" fill="#40C0E7"/>
<path d="M24.0996 33.2921C23.6816 33.2921 23.2376 33.2573 22.7674 33.1876C22.2972 33.1005 21.8531 32.9351 21.4351 32.6913C21.0172 32.4475 20.6776 32.0818 20.4164 31.5942C20.1552 31.0891 20.0246 30.41 20.0246 29.5567V17.8279C20.0246 17.079 20.129 16.4608 20.338 15.9732C20.5644 15.4682 20.8605 15.0764 21.2262 14.7977C21.5919 14.5017 22.0011 14.2927 22.4539 14.1708C22.9067 14.0315 23.3595 13.9618 23.8122 13.9618C24.892 13.9792 25.8933 14.0054 26.8163 14.0402C27.7393 14.0576 28.61 14.0837 29.4285 14.1186C30.2644 14.136 31.0742 14.1621 31.8578 14.1969V15.8687H24.3347C23.6555 15.8687 23.1157 16.0516 22.7151 16.4173C22.3146 16.783 22.1143 17.3664 22.1143 18.1675V22.7127L30.7085 22.8433V24.4367L22.1143 24.5674V29.0865C22.1143 29.7308 22.2188 30.2184 22.4278 30.5493C22.6542 30.8802 22.9502 31.0978 23.3159 31.2023C23.6816 31.3068 24.0561 31.3591 24.4392 31.3591H31.8578V33.0309C31.0567 33.0831 30.2121 33.1267 29.324 33.1615C28.4533 33.1963 27.5738 33.2224 26.6857 33.2398C25.8149 33.2573 24.9529 33.2747 24.0996 33.2921Z" fill="#40C0E7"/>
<path d="M36.662 33.1876V13.9618H44.2374C44.8643 13.9618 45.4738 14.0402 46.0659 14.1969C46.658 14.3362 47.1892 14.6062 47.6594 15.0067C48.147 15.4072 48.5301 15.9819 48.8087 16.7308C49.0874 17.4622 49.2267 18.4287 49.2267 19.6303C49.2267 20.6752 49.1135 21.5372 48.8871 22.2164C48.6607 22.8781 48.3647 23.4093 47.999 23.8098C47.6333 24.1929 47.2327 24.4803 46.7973 24.6718C46.3794 24.846 45.9702 24.9679 45.5696 25.0375L49.514 33.1876H47.3982L43.6627 25.3249C43.3841 25.3249 43.0358 25.3162 42.6178 25.2988C42.1999 25.2814 41.7558 25.2726 41.2856 25.2726C40.8154 25.2726 40.3539 25.2639 39.9011 25.2465C39.4658 25.2291 39.0827 25.2204 38.7518 25.2204V33.1876H36.662ZM38.7518 23.627H43.9239C44.3767 23.627 44.7947 23.5747 45.1778 23.4702C45.5609 23.3657 45.9005 23.1742 46.1965 22.8955C46.4926 22.5995 46.7277 22.1903 46.9018 21.6678C47.076 21.1454 47.1631 20.4662 47.1631 19.6303C47.1631 18.8292 47.076 18.1849 46.9018 17.6973C46.7277 17.1922 46.4839 16.8091 46.1704 16.5479C45.8744 16.2693 45.5348 16.0864 45.1517 15.9993C44.7685 15.8949 44.3593 15.8426 43.9239 15.8426H38.7518V23.627Z" fill="#40C0E7"/>
<path d="M53.8607 33.1876V13.9618H55.9505V33.1876H53.8607Z" fill="#40C0E7"/>
<path d="M61.2891 33.1876V17.8279C61.2891 17.079 61.3936 16.4608 61.6026 15.9732C61.829 15.4682 62.125 15.0764 62.4907 14.7977C62.8564 14.5017 63.2657 14.2927 63.7185 14.1708C64.1713 14.0315 64.624 13.9618 65.0768 13.9618C65.8431 13.9792 66.6703 13.9967 67.5584 14.0141C68.464 14.0315 69.3869 14.0576 70.3273 14.0924C71.2851 14.1098 72.2168 14.1534 73.1224 14.223V15.8687H65.5731C64.8765 15.8687 64.3367 16.0603 63.9536 16.4434C63.5705 16.8265 63.3789 17.3925 63.3789 18.1413V23.1306L71.973 23.2613V24.8547L63.3789 24.9853V33.1876H61.2891Z" fill="#40C0E7"/>
<path d="M82.4318 33.1876V26.8138L76.3193 13.9618H78.4874L83.5028 24.7241L88.5182 13.9618H90.608L84.5216 26.8138V33.1876H82.4318Z" fill="#40C0E7"/>
<path d="M99.7214 11.6566C99.7214 7.82203 102.818 4.71347 106.639 4.71347H128.491C132.312 4.71347 135.409 7.82203 135.409 11.6566V33.433C135.409 37.2676 132.312 40.3761 128.491 40.3761H106.639C102.818 40.3761 99.7214 37.2676 99.7214 33.433V11.6566Z" fill="url(#paint0_linear_269_365)"/>
<path d="M106.532 1.39968C100.959 1.39968 96.4199 5.93919 96.4199 11.5117V33.5779C96.4199 39.1504 100.959 43.6899 106.532 43.6899H128.598C134.171 43.6899 138.71 39.1504 138.71 33.5779V18.7393C138.71 18.5151 138.666 18.293 138.58 18.0859C138.494 17.8788 138.369 17.6906 138.21 17.532C138.052 17.3735 137.863 17.2477 137.656 17.1619C137.449 17.0761 137.227 17.032 137.003 17.032C136.55 17.032 136.116 17.2119 135.796 17.532C135.475 17.8522 135.296 18.2865 135.296 18.7393V33.5779C135.296 37.3178 132.338 40.2753 128.598 40.2753H106.532C102.792 40.2753 99.8345 37.3178 99.8345 33.5779V11.5117C99.8345 7.7718 102.792 4.81424 106.532 4.81424H121.371C121.823 4.81424 122.258 4.63437 122.578 4.31419C122.898 3.99401 123.078 3.55976 123.078 3.10696C123.078 2.65416 122.898 2.21991 122.578 1.89974C122.258 1.57956 121.823 1.39968 121.371 1.39968H106.532Z" fill="#CEDADF"/>
<path d="M107.702 17.506L143.735 0.725586L116.869 33.0199L107.702 17.506Z" fill="white"/>
<path d="M103.751 13.7558L107.702 17.506L143.735 0.725586L103.751 13.7558Z" fill="url(#paint1_linear_269_365)"/>
<path d="M150.213 33.3443C149.795 33.3443 149.299 33.3008 148.724 33.2137C148.167 33.1267 147.627 32.9438 147.105 32.6652C146.582 32.3691 146.147 31.925 145.799 31.3329C145.45 30.7234 145.276 29.9049 145.276 28.8775V18.4548C145.276 17.5492 145.415 16.7917 145.694 16.1822C145.99 15.5727 146.356 15.1025 146.791 14.7716C147.244 14.4233 147.749 14.1795 148.306 14.0402C148.864 13.8835 149.403 13.8051 149.926 13.8051C151.319 13.8051 152.529 13.8312 153.557 13.8835C154.584 13.9183 155.49 13.9618 156.273 14.0141C157.057 14.0663 157.762 14.1186 158.389 14.1708V17.9846H151.284C150.814 17.9846 150.448 18.0978 150.187 18.3242C149.926 18.5332 149.795 18.8728 149.795 19.343V21.485L157.109 21.7462V25.2988L149.795 25.5339V27.5714C149.795 27.9545 149.856 28.2593 149.978 28.4856C150.1 28.6946 150.265 28.8514 150.474 28.9558C150.683 29.0603 150.91 29.1126 151.154 29.1126H158.389V32.9003C157.623 32.9873 156.77 33.0657 155.829 33.1354C154.889 33.205 153.931 33.2486 152.956 33.266C151.998 33.3008 151.084 33.3269 150.213 33.3443Z" fill="#2D3A3F"/>
<path d="M161.748 33.1876L164.021 13.8051H168.305L172.511 27.9893L176.69 13.8051H180.922L183.221 33.1876H178.884L177.291 19.8915L177.97 19.9176L174.574 33.1876H170.342L166.92 19.9176L167.652 19.8915L166.111 33.1876H161.748Z" fill="#2D3A3F"/>
<path d="M185.817 33.1876L191.72 13.8051H197.363L203.266 33.1876H198.59L197.598 29.6611H191.433L190.467 33.1876H185.817ZM192.478 25.6122H196.553L194.515 17.6711L192.478 25.6122Z" fill="#2D3A3F"/>
<path d="M206.413 33.1876V13.8051H210.932V33.1876H206.413Z" fill="#2D3A3F"/>
<path d="M220.153 33.1876C219.056 33.1876 218.151 33.0222 217.437 32.6913C216.723 32.3604 216.192 31.838 215.843 31.124C215.495 30.41 215.321 29.487 215.321 28.355V13.8051H219.84V27.5975C219.84 27.9632 219.892 28.2593 219.997 28.4856C220.119 28.712 220.293 28.8775 220.519 28.982C220.763 29.0865 221.041 29.1387 221.355 29.1387H227.232V33.1876H220.153Z" fill="#2D3A3F"/>
<defs>
<linearGradient id="paint0_linear_269_365" x1="0.656737" y1="17.7323" x2="189.584" y2="-42.7013" gradientUnits="userSpaceOnUse">
<stop stop-color="#02427D"/>
<stop offset="0.260417" stop-color="#125EA5"/>
<stop offset="0.625" stop-color="#1D72C1"/>
<stop offset="0.961881" stop-color="#2784DA"/>
</linearGradient>
<linearGradient id="paint1_linear_269_365" x1="0.656739" y1="18.1009" x2="84.2761" y2="-99.2364" gradientUnits="userSpaceOnUse">
<stop stop-color="#DEE8EB"/>
<stop offset="1" stop-color="#F0FAFD"/>
</linearGradient>
</defs>
</svg>
