<svg width="48" height="48" viewBox="0 0 48 48" fill="none" xmlns="http://www.w3.org/2000/svg">
<path d="M41.2698 38.2748C41.2698 38.9833 41.1123 39.7115 40.7778 40.42C40.4432 41.1285 40.0102 41.7976 39.4395 42.4274C38.4752 43.4901 37.4124 44.2577 36.2119 44.7497C35.0311 45.2417 33.7519 45.4975 32.3742 45.4975C30.3668 45.4975 28.2217 45.0252 25.9584 44.0609C23.6952 43.0965 21.4319 41.7976 19.1884 40.1641C16.9251 38.511 14.78 36.6807 12.7332 34.6536C10.7061 32.6069 8.87584 30.4617 7.24236 28.2181C5.62857 25.9746 4.32967 23.731 3.38501 21.5071C2.44035 19.2635 1.96802 17.1184 1.96802 15.0716C1.96802 13.7334 2.20418 12.4541 2.67651 11.2733C3.14884 10.0728 3.8967 8.9707 4.93976 7.98668C6.1993 6.74681 7.57693 6.13672 9.03328 6.13672C9.58433 6.13672 10.1354 6.2548 10.6274 6.49097C11.1391 6.72713 11.5917 7.08138 11.946 7.59307L16.5118 14.0286C16.8661 14.5206 17.1219 14.9732 17.299 15.4062C17.4762 15.8195 17.5746 16.2328 17.5746 16.6067C17.5746 17.079 17.4368 17.5514 17.1613 18.004C16.9054 18.4566 16.5315 18.929 16.0592 19.4013L14.5635 20.9561C14.347 21.1725 14.2486 21.4284 14.2486 21.7433C14.2486 21.9007 14.2683 22.0385 14.3076 22.1959C14.3667 22.3534 14.4257 22.4715 14.4651 22.5895C14.8193 23.239 15.4294 24.0852 16.2953 25.1086C17.181 26.132 18.1256 27.1751 19.149 28.2181C20.2117 29.2612 21.2351 30.2255 22.2782 31.1111C23.3016 31.9771 24.1478 32.5675 24.817 32.9217C24.9154 32.9611 25.0334 33.0201 25.1712 33.0792C25.3287 33.1382 25.4861 33.1579 25.6632 33.1579C25.9978 33.1579 26.2536 33.0398 26.4701 32.8233L27.9658 31.3473C28.4578 30.8553 28.9302 30.4814 29.3828 30.2452C29.8355 29.9697 30.2881 29.8319 30.7801 29.8319C31.154 29.8319 31.5477 29.9106 31.9806 30.0878C32.4136 30.2649 32.8662 30.5207 33.3583 30.8553L39.8725 35.4802C40.3842 35.8344 40.7384 36.2477 40.9549 36.7397C41.1517 37.2318 41.2698 37.7238 41.2698 38.2748Z" stroke="#9A9EA6" stroke-width="2.36165" stroke-miterlimit="10"/>
<path d="M34.4406 19.913C34.4406 18.7322 33.5157 16.9216 32.138 15.4456C30.8785 14.0876 29.2056 13.0249 27.5525 13.0249" stroke="#9A9EA6" stroke-width="2.36165" stroke-linecap="round" stroke-linejoin="round"/>
<path d="M41.3288 19.913C41.3288 12.2967 35.1688 6.13672 27.5525 6.13672" stroke="#9A9EA6" stroke-width="2.36165" stroke-linecap="round" stroke-linejoin="round"/>
</svg>
