<svg width="32" height="32" viewBox="0 0 32 32" fill="none" xmlns="http://www.w3.org/2000/svg">
<path d="M9.27463 27.1459C11.2427 28.3267 13.6043 28.9827 15.966 28.9827C23.1821 28.9827 29.0862 23.0786 29.0862 15.8625C29.0862 8.64631 23.1821 2.74219 15.966 2.74219C8.74982 2.74219 2.8457 8.64631 2.8457 15.8625C2.8457 18.2241 3.50172 20.4545 4.55134 22.4226L3.42358 26.7601C3.16809 27.7428 4.0776 28.6308 5.05383 28.3518L9.27463 27.1459Z" stroke="#4475F2" stroke-width="1.31203" stroke-miterlimit="10" stroke-linecap="round" stroke-linejoin="round"/>
<path d="M21.87 19.5999C21.87 19.8125 21.8227 20.0309 21.7222 20.2435C21.6217 20.456 21.4916 20.6568 21.3201 20.8457C21.0304 21.1645 20.7111 21.3948 20.3504 21.5424C19.9956 21.69 19.6112 21.7667 19.1973 21.7667C18.5942 21.7667 17.9497 21.625 17.2697 21.3357C16.5897 21.0464 15.9097 20.6568 15.2356 20.1667C14.5556 19.6708 13.9111 19.1217 13.2962 18.5136C12.6871 17.8995 12.1372 17.256 11.6464 16.5829C11.1616 15.9098 10.7713 15.2368 10.4875 14.5696C10.2037 13.8965 10.0618 13.253 10.0618 12.639C10.0618 12.2375 10.1327 11.8537 10.2746 11.4995C10.4165 11.1393 10.6412 10.8087 10.9546 10.5135C11.3331 10.1415 11.747 9.9585 12.1845 9.9585C12.3501 9.9585 12.5157 9.99392 12.6635 10.0648C12.8172 10.1356 12.9532 10.2419 13.0597 10.3954L14.4315 12.326C14.5379 12.4737 14.6148 12.6094 14.668 12.7393C14.7212 12.8633 14.7508 12.9873 14.7508 13.0995C14.7508 13.2412 14.7094 13.3829 14.6266 13.5187C14.5497 13.6545 14.4374 13.7962 14.2955 13.9379L13.8461 14.4043C13.781 14.4692 13.7515 14.546 13.7515 14.6405C13.7515 14.6877 13.7574 14.729 13.7692 14.7763C13.787 14.8235 13.8047 14.8589 13.8165 14.8943C13.923 15.0892 14.1063 15.3431 14.3664 15.6501C14.6325 15.9571 14.9163 16.27 15.2238 16.5829C15.5431 16.8958 15.8506 17.1851 16.164 17.4508C16.4714 17.7106 16.7257 17.8877 16.9267 17.994C16.9563 18.0058 16.9918 18.0235 17.0332 18.0412C17.0805 18.0589 17.1278 18.0649 17.181 18.0649C17.2815 18.0649 17.3584 18.0294 17.4234 17.9645L17.8728 17.5217C18.0207 17.3741 18.1626 17.2619 18.2986 17.191C18.4346 17.1084 18.5706 17.0671 18.7184 17.0671C18.8307 17.0671 18.949 17.0907 19.0791 17.1438C19.2092 17.1969 19.3452 17.2737 19.493 17.3741L21.4502 18.7615C21.6039 18.8678 21.7104 18.9918 21.7754 19.1394C21.8345 19.287 21.87 19.4346 21.87 19.5999Z" stroke="#4475F2" stroke-width="1.31203" stroke-miterlimit="10"/>
</svg>
